<svg width="655" height="47" viewBox="0 0 655 47" fill="none" xmlns="http://www.w3.org/2000/svg">
<path opacity="0.1" d="M21.8703 12.0536H38.6588C43.5016 12.0536 45.8262 14.8301 46.4073 19.2855H59.3861C57.3844 2.04506 42.985 0.430784 35.3011 0.430784H25.228C16.9629 0.430784 0.884683 2.30334 0.884683 23.4827C0.884683 44.7266 16.9629 46.5345 25.228 46.5345H35.3011C42.985 46.5345 57.3844 44.9203 59.3861 27.6798H46.4073C45.5033 32.5226 43.5016 34.9763 38.6588 34.9763H21.8703C15.3486 34.9763 13.7989 29.3586 13.7989 23.4827C13.7989 17.6713 15.3486 12.0536 21.8703 12.0536ZM101.475 0.430784H91.4663C83.1367 0.430784 67.123 2.30334 67.123 23.4827C67.123 44.7266 83.1367 46.5345 91.4663 46.5345H101.475C109.805 46.5345 125.818 44.7266 125.818 23.4827C125.818 2.30334 109.805 0.430784 101.475 0.430784ZM104.833 34.9763H88.1086C81.587 34.9763 79.9727 29.3586 79.9727 23.4827C79.9727 17.6713 81.587 12.0536 88.1086 12.0536H104.833C111.354 12.0536 112.969 17.6713 112.969 23.4827C112.969 29.3586 111.354 34.9763 104.833 34.9763ZM170.776 33.4912L154.698 0.430784H134.875V46.5345H147.079V13.1513L162.899 46.5345H178.589L194.409 13.1513V46.5345H206.678V0.430784H186.79L170.776 33.4912ZM217.004 46.5345H229.208V0.430784H217.004V46.5345ZM286.034 33.2975L257.623 0.430784H239.543V46.5345H251.747V13.6679L280.158 46.5345H298.238V0.430784H286.034V33.2975ZM328.28 12.0536H345.069C349.395 12.0536 351.784 14.3781 352.494 18.0587H365.602C363.084 1.98049 349.201 0.430784 341.647 0.430784H331.638C323.308 0.430784 307.295 2.30334 307.295 23.4827C307.295 44.7266 323.308 46.5345 331.638 46.5345H340.355C344.423 46.5345 350.364 46.0826 355.336 43.1769L356.821 46.5345H365.602V21.0935H330.476V29.6169H352.624C352.042 32.6518 349.331 34.9763 345.327 34.9763H328.28C321.759 34.9763 320.144 29.3586 320.144 23.4827C320.144 17.6713 321.759 12.0536 328.28 12.0536ZM414.647 14.6364C414.647 13.2159 415.357 12.0536 418.908 12.0536H435.697C441.185 12.0536 441.96 15.153 441.96 16.5736H454.229C454.229 11.2787 452.227 0.430784 432.404 0.430784H424.203C404.38 0.430784 402.378 9.3416 402.378 14.6364C402.378 36.3323 442.089 24.1284 442.089 32.3935C442.089 33.7495 441.185 34.9763 437.763 34.9763H420.975C415.551 34.9763 414.711 31.8123 414.711 30.4563H402.507C402.507 35.6866 404.509 46.5345 424.268 46.5345H432.533C452.292 46.5345 454.293 37.6237 454.293 32.3935C454.293 10.7622 414.647 22.3204 414.647 14.6364ZM496.473 0.430784H486.465C478.135 0.430784 462.122 2.30334 462.122 23.4827C462.122 44.7266 478.135 46.5345 486.465 46.5345H496.473C504.803 46.5345 520.817 44.7266 520.817 23.4827C520.817 2.30334 504.803 0.430784 496.473 0.430784ZM499.831 34.9763H483.107C476.586 34.9763 474.971 29.3586 474.971 23.4827C474.971 17.6713 476.586 12.0536 483.107 12.0536H499.831C506.353 12.0536 507.967 17.6713 507.967 23.4827C507.967 29.3586 506.353 34.9763 499.831 34.9763ZM562.901 0.430784H552.892C544.563 0.430784 528.549 2.30334 528.549 23.4827C528.549 44.7266 544.563 46.5345 552.892 46.5345H562.901C571.231 46.5345 587.244 44.7266 587.244 23.4827C587.244 2.30334 571.231 0.430784 562.901 0.430784ZM566.259 34.9763H549.535C543.013 34.9763 541.399 29.3586 541.399 23.4827C541.399 17.6713 543.013 12.0536 549.535 12.0536H566.259C572.78 12.0536 574.395 17.6713 574.395 23.4827C574.395 29.3586 572.78 34.9763 566.259 34.9763ZM642.792 33.2975L614.381 0.430784H596.301V46.5345H608.505V13.6679L636.916 46.5345H654.996V0.430784H642.792V33.2975Z" fill="white"/>
</svg>
