<svg width="658" height="50" viewBox="0 0 658 50" fill="none" xmlns="http://www.w3.org/2000/svg">
<path opacity="0.3" d="M47.5709 20.7318L45.954 20.9427L46.1392 22.3624H47.5709V20.7318ZM60.5497 20.7318V22.3624H62.3805L62.1694 20.5438L60.5497 20.7318ZM60.5497 29.1261L62.1694 29.3141L62.3805 27.4955H60.5497V29.1261ZM47.5709 29.1261V27.4955H46.2165L45.968 28.8269L47.5709 29.1261ZM23.0339 15.1305H39.8224V11.8693H23.0339V15.1305ZM39.8224 15.1305C41.9184 15.1305 43.2592 15.7212 44.1455 16.6018C45.0607 17.5111 45.6912 18.928 45.954 20.9427L49.1878 20.5209C48.8694 18.0803 48.0471 15.8812 46.444 14.2884C44.8121 12.6669 42.5691 11.8693 39.8224 11.8693V15.1305ZM47.5709 22.3624H60.5497V19.1013H47.5709V22.3624ZM62.1694 20.5438C61.1072 11.3953 56.6907 6.21171 51.4037 3.39965C46.2313 0.648546 40.3801 0.24649 36.4647 0.24649V3.50766C40.2332 3.50766 45.4236 3.91274 49.8723 6.27889C54.2064 8.58409 57.9904 12.8279 58.93 20.9199L62.1694 20.5438ZM36.4647 0.24649L26.3916 0.24649V3.50766L36.4647 3.50766V0.24649ZM26.3916 0.24649C22.1885 0.24649 15.7185 0.709951 10.2647 4.07283C4.6676 7.52406 0.417674 13.8516 0.417674 24.929H3.67884C3.67884 14.827 7.46802 9.62859 11.9763 6.84871C16.6279 3.98047 22.3295 3.50766 26.3916 3.50766V0.24649ZM0.417674 24.929C0.417674 36.0367 4.66628 42.3662 10.2663 45.8103C15.7214 49.1652 22.1929 49.6114 26.3916 49.6114V46.3503C22.3251 46.3503 16.625 45.8924 11.9747 43.0324C7.46934 40.2616 3.67884 35.0651 3.67884 24.929H0.417674ZM26.3916 49.6114H36.4647V46.3503H26.3916V49.6114ZM36.4647 49.6114C40.3801 49.6114 46.2313 49.2094 51.4037 46.4583C56.6907 43.6462 61.1072 38.4626 62.1694 29.3141L58.93 28.938C57.9904 37.0301 54.2064 41.2738 49.8723 43.579C45.4236 45.9452 40.2332 46.3503 36.4647 46.3503V49.6114ZM60.5497 27.4955H47.5709V30.7567H60.5497V27.4955ZM45.968 28.8269C45.5386 31.1269 44.8947 32.5634 44.0207 33.4374C43.1993 34.2588 41.9609 34.792 39.8224 34.792V38.0532C42.5267 38.0532 44.7105 37.3596 46.3267 35.7434C47.8902 34.1798 48.6991 31.9681 49.1738 29.4253L45.968 28.8269ZM39.8224 34.792H23.0339V38.0532H39.8224V34.792ZM23.0339 34.792C21.643 34.792 20.6161 34.4947 19.8417 34.0438C19.0681 33.5935 18.4558 32.9372 17.9739 32.0801C16.9794 30.3115 16.5931 27.7807 16.5931 24.929H13.3319C13.3319 27.9532 13.7204 31.1692 15.1312 33.6784C15.852 34.9603 16.8499 36.0757 18.201 36.8622C19.5514 37.6484 21.1639 38.0532 23.0339 38.0532V34.792ZM16.5931 24.929C16.5931 22.1116 16.9789 19.5971 17.9726 17.8366C18.4542 16.9832 19.0665 16.3282 19.8407 15.8782C20.6157 15.4278 21.6431 15.1305 23.0339 15.1305V11.8693C21.1638 11.8693 19.5519 12.2741 18.202 13.0587C16.8515 13.8436 15.8535 14.9562 15.1325 16.2337C13.7209 18.7348 13.3319 21.935 13.3319 24.929H16.5931ZM102.638 0.24649L92.6299 0.24649V3.50766L102.638 3.50766V0.24649ZM92.6299 0.24649C88.3958 0.24649 81.9245 0.709579 76.4778 4.07344C70.8876 7.52595 66.656 13.8543 66.656 24.929H69.9172C69.9172 14.8243 73.6924 9.6267 78.1914 6.84809C82.834 3.98085 88.5343 3.50766 92.6299 3.50766V0.24649ZM66.656 24.929C66.656 36.034 70.8863 42.3643 76.4794 45.8097C81.9274 49.1656 88.4002 49.6114 92.6299 49.6114V46.3503C88.5299 46.3503 82.8311 45.8921 78.1898 43.033C73.6937 40.2634 69.9172 35.0678 69.9172 24.929H66.656ZM92.6299 49.6114H102.638V46.3503H92.6299V49.6114ZM102.638 49.6114C106.868 49.6114 113.341 49.1656 118.789 45.8097C124.382 42.3643 128.612 36.034 128.612 24.929L125.351 24.929C125.351 35.0678 121.575 40.2634 117.078 43.033C112.437 45.8921 106.738 46.3503 102.638 46.3503V49.6114ZM128.612 24.929C128.612 13.8543 124.381 7.52595 118.791 4.07344C113.344 0.709579 106.872 0.24649 102.638 0.24649V3.50766C106.734 3.50766 112.434 3.98085 117.077 6.84809C121.576 9.6267 125.351 14.8243 125.351 24.929L128.612 24.929ZM105.996 34.792H89.2722V38.0532H105.996V34.792ZM89.2722 34.792C86.5929 34.792 85.1019 33.6982 84.1753 32.072C83.1675 30.3032 82.7668 27.7732 82.7668 24.929H79.5057C79.5057 27.9607 79.9122 31.1775 81.3419 33.6865C82.8528 36.3382 85.4298 38.0532 89.2722 38.0532V34.792ZM82.7668 24.929C82.7668 22.1191 83.1669 19.6055 84.174 17.8447C85.1004 16.2251 86.5922 15.1305 89.2722 15.1305V11.8693C85.4305 11.8693 82.8544 13.5835 81.3432 16.2256C79.9127 18.7265 79.5057 21.9274 79.5057 24.929H82.7668ZM89.2722 15.1305H105.996V11.8693H89.2722V15.1305ZM105.996 15.1305C108.676 15.1305 110.168 16.2251 111.094 17.8447C112.101 19.6055 112.502 22.1191 112.502 24.929H115.763C115.763 21.9274 115.356 18.7265 113.925 16.2256C112.414 13.5835 109.838 11.8693 105.996 11.8693V15.1305ZM112.502 24.929C112.502 27.7732 112.101 30.3032 111.093 32.072C110.166 33.6982 108.675 34.792 105.996 34.792V38.0532C109.839 38.0532 112.416 36.3382 113.926 33.6865C115.356 31.1775 115.763 27.9607 115.763 24.929H112.502ZM171.94 34.9375L170.473 35.6506L171.943 38.6719L173.407 35.6483L171.94 34.9375ZM155.862 1.87707L157.328 1.16394L156.882 0.24649H155.862V1.87707ZM136.038 1.87707V0.24649H134.408V1.87707H136.038ZM136.038 47.9808H134.408V49.6114H136.038V47.9808ZM148.242 47.9808V49.6114H149.873V47.9808H148.242ZM148.242 14.5976L149.716 13.8993L146.612 14.5976H148.242ZM164.062 47.9808L162.589 48.6791L163.031 49.6114H164.062V47.9808ZM179.753 47.9808V49.6114H180.785L181.226 48.6791L179.753 47.9808ZM195.573 14.5976H197.203L194.099 13.8993L195.573 14.5976ZM195.573 47.9808H193.942V49.6114H195.573V47.9808ZM207.841 47.9808V49.6114H209.472V47.9808H207.841ZM207.841 1.87707H209.472V0.24649H207.841V1.87707ZM187.954 1.87707V0.24649H186.932L186.486 1.16625L187.954 1.87707ZM173.406 34.2243L157.328 1.16394L154.395 2.59021L170.473 35.6506L173.406 34.2243ZM155.862 0.24649H136.038V3.50766H155.862V0.24649ZM134.408 1.87707V47.9808H137.669V1.87707H134.408ZM136.038 49.6114H148.242V46.3503H136.038V49.6114ZM149.873 47.9808V14.5976H146.612V47.9808H149.873ZM146.769 15.2959L162.589 48.6791L165.536 47.2826L149.716 13.8993L146.769 15.2959ZM164.062 49.6114H179.753V46.3503H164.062V49.6114ZM181.226 48.6791L197.046 15.2959L194.099 13.8993L178.279 47.2826L181.226 48.6791ZM193.942 14.5976V47.9808H197.203V14.5976H193.942ZM195.573 49.6114H207.841V46.3503H195.573V49.6114ZM209.472 47.9808V1.87707H206.211V47.9808H209.472ZM207.841 0.24649H187.954V3.50766H207.841V0.24649ZM186.486 1.16625L170.472 34.2267L173.407 35.6483L189.421 2.58789L186.486 1.16625ZM218.167 47.9808H216.537V49.6114H218.167V47.9808ZM230.371 47.9808V49.6114H232.002V47.9808H230.371ZM230.371 1.87707H232.002V0.24649H230.371V1.87707ZM218.167 1.87707V0.24649H216.537V1.87707H218.167ZM218.167 49.6114H230.371V46.3503H218.167V49.6114ZM232.002 47.9808V1.87707H228.741V47.9808H232.002ZM230.371 0.24649L218.167 0.24649V3.50766L230.371 3.50766V0.24649ZM216.537 1.87707V47.9808H219.798V1.87707H216.537ZM287.198 34.7438L285.964 35.8101L288.828 39.1234V34.7438H287.198ZM258.786 1.87707L260.02 0.810723L259.532 0.24649H258.786V1.87707ZM240.707 1.87707V0.24649H239.076V1.87707H240.707ZM240.707 47.9808H239.076V49.6114H240.707V47.9808ZM252.911 47.9808V49.6114H254.541V47.9808H252.911ZM252.911 15.1141L254.144 14.0478L251.28 10.7345V15.1141H252.911ZM281.322 47.9808L280.088 49.0472L280.576 49.6114H281.322V47.9808ZM299.402 47.9808V49.6114H301.032V47.9808H299.402ZM299.402 1.87707H301.032V0.24649H299.402V1.87707ZM287.198 1.87707V0.24649L285.567 0.24649V1.87707L287.198 1.87707ZM288.431 33.6774L260.02 0.810723L257.553 2.94342L285.964 35.8101L288.431 33.6774ZM258.786 0.24649H240.707V3.50766H258.786V0.24649ZM239.076 1.87707V47.9808H242.337V1.87707H239.076ZM240.707 49.6114H252.911V46.3503H240.707V49.6114ZM254.541 47.9808V15.1141H251.28V47.9808H254.541ZM251.677 16.1805L280.088 49.0472L282.555 46.9145L254.144 14.0478L251.677 16.1805ZM281.322 49.6114H299.402V46.3503H281.322V49.6114ZM301.032 47.9808V1.87707H297.771V47.9808H301.032ZM299.402 0.24649H287.198V3.50766H299.402V0.24649ZM285.567 1.87707V34.7438H288.828V1.87707L285.567 1.87707ZM353.658 19.505L352.057 19.814L352.312 21.1356H353.658V19.505ZM366.766 19.505V21.1356H368.672L368.377 19.2527L366.766 19.505ZM356.499 44.6231L357.99 43.9636L357.252 42.2945L355.676 43.2153L356.499 44.6231ZM357.984 47.9808L356.493 48.6404L356.923 49.6114H357.984V47.9808ZM366.766 47.9808V49.6114H368.397V47.9808H366.766ZM366.766 22.5398H368.397V20.9092H366.766V22.5398ZM331.639 22.5398V20.9092H330.009V22.5398H331.639ZM331.639 31.0632H330.009V32.6938H331.639V31.0632ZM353.787 31.0632L355.389 31.3699L355.76 29.4326H353.787V31.0632ZM329.444 15.1305H346.232V11.8693H329.444V15.1305ZM346.232 15.1305C348.097 15.1305 349.375 15.6259 350.246 16.3654C351.124 17.1105 351.754 18.2431 352.057 19.814L355.259 19.196C354.852 17.0863 353.932 15.2163 352.356 13.879C350.774 12.5361 348.694 11.8693 346.232 11.8693V15.1305ZM353.658 21.1356H366.766V17.8744H353.658V21.1356ZM368.377 19.2527C367.034 10.6797 362.597 5.83402 357.414 3.20726C352.335 0.633203 346.661 0.24649 342.81 0.24649V3.50766C346.514 3.50766 351.559 3.8958 355.94 6.11615C360.216 8.28379 363.98 12.252 365.155 19.7573L368.377 19.2527ZM342.81 0.24649H332.802V3.50766H342.81V0.24649ZM332.802 0.24649C328.568 0.24649 322.096 0.709579 316.65 4.07344C311.059 7.52595 306.828 13.8543 306.828 24.929H310.089C310.089 14.8243 313.864 9.6267 318.363 6.84809C323.006 3.98085 328.706 3.50766 332.802 3.50766V0.24649ZM306.828 24.929C306.828 36.034 311.058 42.3643 316.651 45.8097C322.099 49.1656 328.572 49.6114 332.802 49.6114V46.3503C328.702 46.3503 323.003 45.8921 318.362 43.033C313.865 40.2634 310.089 35.0678 310.089 24.929H306.828ZM332.802 49.6114H341.519V46.3503H332.802V49.6114ZM341.519 49.6114C345.657 49.6114 351.962 49.1633 357.322 46.0309L355.676 43.2153C351.092 45.8943 345.517 46.3503 341.519 46.3503V49.6114ZM355.008 45.2827L356.493 48.6404L359.476 47.3213L357.99 43.9636L355.008 45.2827ZM357.984 49.6114H366.766V46.3503H357.984V49.6114ZM368.397 47.9808V22.5398H365.135V47.9808H368.397ZM366.766 20.9092H331.639V24.1704H366.766V20.9092ZM330.009 22.5398V31.0632H333.27V22.5398H330.009ZM331.639 32.6938H353.787V29.4326H331.639V32.6938ZM352.186 30.7565C351.77 32.9254 349.816 34.792 346.491 34.792V38.0532C351.173 38.0532 354.642 35.2707 355.389 31.3699L352.186 30.7565ZM346.491 34.792H329.444V38.0532H346.491V34.792ZM329.444 34.792C326.765 34.792 325.274 33.6982 324.347 32.072C323.339 30.3032 322.939 27.7732 322.939 24.929H319.677C319.677 27.9607 320.084 31.1775 321.514 33.6865C323.025 36.3382 325.602 38.0532 329.444 38.0532V34.792ZM322.939 24.929C322.939 22.1191 323.339 19.6055 324.346 17.8447C325.272 16.2251 326.764 15.1305 329.444 15.1305V11.8693C325.602 11.8693 323.026 13.5835 321.515 16.2256C320.084 18.7265 319.677 21.9274 319.677 24.929H322.939ZM443.124 18.0198H441.493V19.6504H443.124V18.0198ZM455.392 18.0198V19.6504H457.023V18.0198H455.392ZM415.875 31.9026H417.505V30.2721H415.875V31.9026ZM403.671 31.9026V30.2721H402.04V31.9026H403.671ZM417.441 16.0827C417.441 15.6576 417.53 15.6063 417.59 15.561C417.78 15.4182 418.402 15.1305 420.072 15.1305V11.8693C418.191 11.8693 416.682 12.1627 415.628 12.9561C414.445 13.8472 414.18 15.0872 414.18 16.0827H417.441ZM420.072 15.1305H436.86V11.8693H420.072V15.1305ZM436.86 15.1305C439.296 15.1305 440.368 15.8093 440.853 16.3336C441.366 16.8892 441.493 17.5678 441.493 18.0198H444.754C444.754 17.0513 444.494 15.47 443.248 14.1207C441.973 12.7401 439.913 11.8693 436.86 11.8693V15.1305ZM443.124 19.6504H455.392V16.3893H443.124V19.6504ZM457.023 18.0198C457.023 15.1985 456.495 10.6888 453.136 6.88378C449.747 3.04434 443.768 0.24649 433.567 0.24649V3.50766C443.19 3.50766 448.124 6.13378 450.691 9.04202C453.289 11.9847 453.762 15.5463 453.762 18.0198H457.023ZM433.567 0.24649H425.367V3.50766H433.567V0.24649ZM425.367 0.24649C415.254 0.24649 409.297 2.51409 405.885 5.82402C402.447 9.15942 401.911 13.2442 401.911 16.0827H405.172C405.172 13.6264 405.637 10.6084 408.156 8.16464C410.701 5.69546 415.657 3.50766 425.367 3.50766V0.24649ZM401.911 16.0827C401.911 19.0528 402.594 21.5408 403.861 23.5924C405.124 25.6391 406.909 27.1543 408.964 28.2785C413.018 30.4955 418.288 31.2751 423.284 31.6244C425.804 31.8006 428.321 31.87 430.639 31.9396C432.977 32.0098 435.094 32.08 436.892 32.2525C438.726 32.4284 440.044 32.697 440.865 33.0749C441.26 33.2565 441.444 33.4212 441.525 33.5245C441.584 33.5999 441.622 33.6795 441.622 33.8398H444.884C444.884 32.9669 444.611 32.1733 444.089 31.5088C443.588 30.8723 442.92 30.4305 442.228 30.1124C440.878 29.491 439.093 29.1875 437.204 29.0062C435.28 28.8216 433.053 28.7495 430.737 28.6799C428.401 28.6098 425.954 28.542 423.511 28.3712C418.579 28.0263 413.921 27.2724 410.529 25.4173C408.862 24.5055 407.544 23.3501 406.636 21.8792C405.73 20.4132 405.172 18.5366 405.172 16.0827H401.911ZM441.622 33.8398C441.622 34.1137 441.559 34.2154 441.413 34.3217C441.166 34.5018 440.494 34.792 438.927 34.792V38.0532C440.782 38.0532 442.273 37.73 443.333 36.9577C444.495 36.1115 444.884 34.9218 444.884 33.8398H441.622ZM438.927 34.792H422.138V38.0532H438.927V34.792ZM422.138 34.792C419.752 34.792 418.672 34.1069 418.17 33.5643C417.634 32.9845 417.505 32.293 417.505 31.9026H414.244C414.244 32.8683 414.535 34.4368 415.775 35.778C417.049 37.1563 419.1 38.0532 422.138 38.0532V34.792ZM415.875 30.2721H403.671V33.5332H415.875V30.2721ZM402.04 31.9026C402.04 34.6941 402.569 39.1863 405.919 42.982C409.299 46.8126 415.262 49.6114 425.431 49.6114V46.3503C415.842 46.3503 410.924 43.7251 408.364 40.8242C405.773 37.8883 405.301 34.3414 405.301 31.9026H402.04ZM425.431 49.6114H433.696V46.3503H425.431V49.6114ZM433.696 49.6114C443.779 49.6114 449.719 47.3431 453.122 44.042C456.55 40.716 457.087 36.6491 457.087 33.8398H453.826C453.826 36.2607 453.363 39.2643 450.851 41.7013C448.313 44.1632 443.373 46.3503 433.696 46.3503V49.6114ZM457.087 33.8398C457.087 30.8771 456.405 28.3885 455.144 26.3294C453.885 24.2756 452.108 22.7431 450.058 21.5969C446.013 19.3352 440.753 18.4957 435.761 18.1054C433.241 17.9084 430.728 17.8227 428.41 17.7447C426.072 17.666 423.954 17.5955 422.151 17.433C420.315 17.2675 418.985 17.0189 418.153 16.6644C417.749 16.4926 417.57 16.3396 417.5 16.2567C417.458 16.2073 417.441 16.1753 417.441 16.0827H414.18C414.18 16.9506 414.473 17.7288 415.011 18.3648C415.522 18.9674 416.194 19.3751 416.875 19.6649C418.211 20.2335 419.979 20.5116 421.859 20.681C423.772 20.8535 425.991 20.9263 428.3 21.004C430.627 21.0823 433.07 21.1661 435.507 21.3566C440.426 21.7412 445.077 22.5482 448.466 24.4433C450.133 25.3755 451.453 26.5489 452.363 28.0333C453.269 29.5125 453.826 31.3946 453.826 33.8398H457.087ZM497.637 0.24649H487.628V3.50766H497.637V0.24649ZM487.628 0.24649C483.394 0.24649 476.923 0.709579 471.476 4.07344C465.886 7.52595 461.655 13.8543 461.655 24.929H464.916C464.916 14.8243 468.691 9.6267 473.19 6.84809C477.833 3.98085 483.533 3.50766 487.628 3.50766V0.24649ZM461.655 24.929C461.655 36.034 465.885 42.3643 471.478 45.8097C476.926 49.1656 483.399 49.6114 487.628 49.6114V46.3503C483.529 46.3503 477.83 45.8921 473.188 43.033C468.692 40.2634 464.916 35.0678 464.916 24.929H461.655ZM487.628 49.6114H497.637V46.3503H487.628V49.6114ZM497.637 49.6114C501.867 49.6114 508.34 49.1656 513.787 45.8097C519.381 42.3643 523.611 36.034 523.611 24.929H520.35C520.35 35.0678 516.573 40.2634 512.077 43.033C507.436 45.8921 501.737 46.3503 497.637 46.3503V49.6114ZM523.611 24.929C523.611 13.8543 519.379 7.52595 513.789 4.07344C508.342 0.709579 501.871 0.24649 497.637 0.24649V3.50766C501.733 3.50766 507.433 3.98085 512.075 6.84809C516.574 9.6267 520.35 14.8243 520.35 24.929H523.611ZM500.995 34.792H484.271V38.0532H500.995V34.792ZM484.271 34.792C481.591 34.792 480.1 33.6982 479.174 32.072C478.166 30.3032 477.765 27.7732 477.765 24.929H474.504C474.504 27.9607 474.911 31.1775 476.34 33.6865C477.851 36.3382 480.428 38.0532 484.271 38.0532V34.792ZM477.765 24.929C477.765 22.1191 478.165 19.6055 479.173 17.8447C480.099 16.2251 481.591 15.1305 484.271 15.1305V11.8693C480.429 11.8693 477.853 13.5835 476.342 16.2256C474.911 18.7265 474.504 21.9274 474.504 24.929H477.765ZM484.271 15.1305H500.995V11.8693H484.271V15.1305ZM500.995 15.1305C503.675 15.1305 505.167 16.2251 506.093 17.8447C507.1 19.6055 507.5 22.1191 507.5 24.929H510.761C510.761 21.9274 510.354 18.7265 508.924 16.2256C507.413 13.5835 504.836 11.8693 500.995 11.8693V15.1305ZM507.5 24.929C507.5 27.7732 507.099 30.3032 506.092 32.072C505.165 33.6982 503.674 34.792 500.995 34.792V38.0532C504.837 38.0532 507.414 36.3382 508.925 33.6865C510.355 31.1775 510.761 27.9607 510.761 24.929H507.5ZM564.065 0.24649H554.056V3.50766H564.065V0.24649ZM554.056 0.24649C549.822 0.24649 543.351 0.709579 537.904 4.07344C532.314 7.52595 528.082 13.8543 528.082 24.929H531.343C531.343 14.8243 535.118 9.6267 539.618 6.84809C544.26 3.98085 549.96 3.50766 554.056 3.50766V0.24649ZM528.082 24.929C528.082 36.034 532.312 42.3643 537.906 45.8097C543.353 49.1656 549.826 49.6114 554.056 49.6114V46.3503C549.956 46.3503 544.257 45.8921 539.616 43.033C535.12 40.2634 531.343 35.0678 531.343 24.929H528.082ZM554.056 49.6114H564.065V46.3503H554.056V49.6114ZM564.065 49.6114C568.294 49.6114 574.767 49.1656 580.215 45.8097C585.808 42.3643 590.038 36.034 590.038 24.929H586.777C586.777 35.0678 583.001 40.2634 578.505 43.033C573.863 45.8921 568.164 46.3503 564.065 46.3503V49.6114ZM590.038 24.929C590.038 13.8543 585.807 7.52595 580.217 4.07344C574.77 0.709579 568.299 0.24649 564.065 0.24649V3.50766C568.16 3.50766 573.86 3.98085 578.503 6.84809C583.002 9.6267 586.777 14.8243 586.777 24.929H590.038ZM567.422 34.792H550.698V38.0532H567.422V34.792ZM550.698 34.792C548.019 34.792 546.528 33.6982 545.601 32.072C544.594 30.3032 544.193 27.7732 544.193 24.929H540.932C540.932 27.9607 541.338 31.1775 542.768 33.6865C544.279 36.3382 546.856 38.0532 550.698 38.0532V34.792ZM544.193 24.929C544.193 22.1191 544.593 19.6055 545.6 17.8447C546.526 16.2251 548.018 15.1305 550.698 15.1305V11.8693C546.857 11.8693 544.28 13.5835 542.769 16.2256C541.339 18.7265 540.932 21.9274 540.932 24.929H544.193ZM550.698 15.1305H567.422V11.8693H550.698V15.1305ZM567.422 15.1305C570.102 15.1305 571.594 16.2251 572.52 17.8447C573.527 19.6055 573.928 22.1191 573.928 24.929H577.189C577.189 21.9274 576.782 18.7265 575.351 16.2256C573.84 13.5835 571.264 11.8693 567.422 11.8693V15.1305ZM573.928 24.929C573.928 27.7732 573.527 30.3032 572.519 32.072C571.592 33.6982 570.102 34.792 567.422 34.792V38.0532C571.265 38.0532 573.842 36.3382 575.353 33.6865C576.782 31.1775 577.189 27.9607 577.189 24.929H573.928ZM643.956 34.7438L642.722 35.8101L645.586 39.1234V34.7438H643.956ZM615.544 1.87707L616.778 0.810723L616.29 0.24649H615.544V1.87707ZM597.464 1.87707V0.24649H595.834V1.87707H597.464ZM597.464 47.9808H595.834V49.6114H597.464V47.9808ZM609.668 47.9808V49.6114H611.299V47.9808H609.668ZM609.668 15.1141L610.902 14.0478L608.038 10.7345V15.1141H609.668ZM638.08 47.9808L636.846 49.0472L637.334 49.6114H638.08V47.9808ZM656.16 47.9808V49.6114H657.79V47.9808H656.16ZM656.16 1.87707H657.79V0.24649H656.16V1.87707ZM643.956 1.87707V0.24649H642.325V1.87707H643.956ZM645.189 33.6774L616.778 0.810723L614.311 2.94342L642.722 35.8101L645.189 33.6774ZM615.544 0.24649L597.464 0.24649V3.50766L615.544 3.50766V0.24649ZM595.834 1.87707V47.9808H599.095V1.87707H595.834ZM597.464 49.6114H609.668V46.3503H597.464V49.6114ZM611.299 47.9808V15.1141H608.038V47.9808H611.299ZM608.435 16.1805L636.846 49.0472L639.313 46.9145L610.902 14.0478L608.435 16.1805ZM638.08 49.6114H656.16V46.3503H638.08V49.6114ZM657.79 47.9808V1.87707H654.529V47.9808H657.79ZM656.16 0.24649H643.956V3.50766H656.16V0.24649ZM642.325 1.87707V34.7438H645.586V1.87707H642.325Z" fill="white"/>
</svg>
