<svg width="655" height="47" viewBox="0 0 655 47" fill="none" xmlns="http://www.w3.org/2000/svg">
<path opacity="0.2" d="M21.0339 12.4999H37.8224C42.6652 12.4999 44.9897 15.2764 45.5709 19.7318H58.5497C56.548 2.49135 42.1486 0.877073 34.4647 0.877073L24.3916 0.877073C16.1265 0.877073 0.0482571 2.74963 0.0482571 23.929C0.0482571 45.1728 16.1265 46.9808 24.3916 46.9808H34.4647C42.1486 46.9808 56.548 45.3666 58.5497 28.1261H45.5709C44.6669 32.9689 42.6652 35.4226 37.8224 35.4226H21.0339C14.5122 35.4226 12.9625 29.8049 12.9625 23.929C12.9625 18.1176 14.5122 12.4999 21.0339 12.4999ZM100.638 0.877073L90.6299 0.877073C82.3002 0.877073 66.2866 2.74963 66.2866 23.929C66.2866 45.1728 82.3002 46.9808 90.6299 46.9808H100.638C108.968 46.9808 124.982 45.1728 124.982 23.929C124.982 2.74963 108.968 0.877073 100.638 0.877073ZM103.996 35.4226H87.2722C80.7505 35.4226 79.1362 29.8049 79.1362 23.929C79.1362 18.1176 80.7505 12.4999 87.2722 12.4999H103.996C110.518 12.4999 112.132 18.1176 112.132 23.929C112.132 29.8049 110.518 35.4226 103.996 35.4226ZM169.94 33.9375L153.862 0.877073H134.038V46.9808H146.242V13.5976L162.062 46.9808H177.753L193.573 13.5976V46.9808H205.841V0.877073H185.954L169.94 33.9375ZM216.167 46.9808H228.371V0.877073L216.167 0.877073V46.9808ZM285.198 33.7438L256.786 0.877073H238.707V46.9808H250.911V14.1141L279.322 46.9808H297.402V0.877073H285.198V33.7438ZM327.444 12.4999H344.232C348.559 12.4999 350.948 14.8244 351.658 18.505H364.766C362.248 2.42678 348.365 0.877073 340.81 0.877073H330.802C322.472 0.877073 306.458 2.74963 306.458 23.929C306.458 45.1728 322.472 46.9808 330.802 46.9808H339.519C343.587 46.9808 349.527 46.5288 354.499 43.6231L355.984 46.9808H364.766V21.5398H329.639V30.0632H351.787C351.206 33.0981 348.494 35.4226 344.491 35.4226H327.444C320.922 35.4226 319.308 29.8049 319.308 23.929C319.308 18.1176 320.922 12.4999 327.444 12.4999ZM413.81 15.0827C413.81 13.6622 414.521 12.4999 418.072 12.4999H434.86C440.349 12.4999 441.124 15.5993 441.124 17.0198H453.392C453.392 11.725 451.391 0.877073 431.567 0.877073H423.367C403.543 0.877073 401.542 9.78789 401.542 15.0827C401.542 36.7786 441.253 24.5747 441.253 32.8398C441.253 34.1958 440.349 35.4226 436.927 35.4226H420.138C414.714 35.4226 413.875 32.2586 413.875 30.9026H401.671C401.671 36.1329 403.673 46.9808 423.431 46.9808H431.696C451.455 46.9808 453.457 38.07 453.457 32.8398C453.457 11.2085 413.81 22.7667 413.81 15.0827ZM495.637 0.877073H485.628C477.299 0.877073 461.285 2.74963 461.285 23.929C461.285 45.1728 477.299 46.9808 485.628 46.9808H495.637C503.967 46.9808 519.98 45.1728 519.98 23.929C519.98 2.74963 503.967 0.877073 495.637 0.877073ZM498.995 35.4226H482.271C475.749 35.4226 474.135 29.8049 474.135 23.929C474.135 18.1176 475.749 12.4999 482.271 12.4999H498.995C505.516 12.4999 507.131 18.1176 507.131 23.929C507.131 29.8049 505.516 35.4226 498.995 35.4226ZM562.065 0.877073H552.056C543.726 0.877073 527.713 2.74963 527.713 23.929C527.713 45.1728 543.726 46.9808 552.056 46.9808H562.065C570.394 46.9808 586.408 45.1728 586.408 23.929C586.408 2.74963 570.394 0.877073 562.065 0.877073ZM565.422 35.4226H548.698C542.177 35.4226 540.562 29.8049 540.562 23.929C540.562 18.1176 542.177 12.4999 548.698 12.4999H565.422C571.944 12.4999 573.558 18.1176 573.558 23.929C573.558 29.8049 571.944 35.4226 565.422 35.4226ZM641.956 33.7438L613.544 0.877073L595.464 0.877073V46.9808H607.668V14.1141L636.08 46.9808H654.16V0.877073H641.956V33.7438Z" fill="white"/>
</svg>
