<svg width="657" height="49" viewBox="0 0 657 49" fill="none" xmlns="http://www.w3.org/2000/svg">
<path opacity="0.2" d="M46.8071 20.4728L45.9986 20.5783L46.0912 21.2881H46.8071V20.4728ZM59.7859 20.4728V21.2881H60.7013L60.5957 20.3788L59.7859 20.4728ZM59.7859 28.867L60.5957 28.9611L60.7013 28.0518H59.7859V28.867ZM46.8071 28.867V28.0518H46.1299L46.0056 28.7174L46.8071 28.867ZM22.2701 14.0561H39.0586V12.4255H22.2701V14.0561ZM39.0586 14.0561C41.3173 14.0561 42.8836 14.6986 43.9563 15.7644C45.0435 16.8446 45.722 18.457 45.9986 20.5783L47.6155 20.3674C47.3111 18.0332 46.5367 16.0296 45.1056 14.6077C43.66 13.1714 41.6426 12.4255 39.0586 12.4255V14.0561ZM46.8071 21.2881H59.7859V19.6575H46.8071V21.2881ZM60.5957 20.3788C59.5642 11.4944 55.3059 6.54577 50.2571 3.86043C45.2656 1.20556 39.5796 0.802748 35.7009 0.802748V2.43333C39.5061 2.43333 44.8618 2.83766 49.4914 5.30005C54.0637 7.73196 58.0058 12.2107 58.976 20.5668L60.5957 20.3788ZM35.7009 0.802748H25.6278V2.43333H35.7009V0.802748ZM25.6278 0.802748C21.46 0.802748 15.182 1.26855 9.92879 4.50777C4.60391 7.79116 0.469172 13.8364 0.469172 24.6699H2.09975C2.09975 14.3241 6.00412 8.84342 10.7846 5.8957C15.6368 2.90381 21.5305 2.43333 25.6278 2.43333V0.802748ZM0.469172 24.6699C0.469172 35.5348 4.60325 41.581 9.9296 44.8568C15.1835 48.088 21.4622 48.5371 25.6278 48.5371V46.9065C21.5283 46.9065 15.6353 46.4516 10.7838 43.4679C6.00478 40.5287 2.09975 35.049 2.09975 24.6699H0.469172ZM25.6278 48.5371H35.7009V46.9065H25.6278V48.5371ZM35.7009 48.5371C39.5796 48.5371 45.2656 48.1343 50.2571 45.4794C55.3059 42.7941 59.5642 37.8454 60.5957 28.9611L58.976 28.773C58.0058 37.1292 54.0637 41.6079 49.4914 44.0398C44.8618 46.5022 39.5061 46.9065 35.7009 46.9065V48.5371ZM59.7859 28.0518H46.8071V29.6823H59.7859V28.0518ZM46.0056 28.7174C45.565 31.0782 44.8798 32.7085 43.8334 33.7549C42.8133 34.775 41.3385 35.3483 39.0586 35.3483V36.9789C41.6214 36.9789 43.5689 36.3254 44.9864 34.9079C46.3776 33.5167 47.1452 31.4987 47.6085 29.0166L46.0056 28.7174ZM39.0586 35.3483H22.2701V36.9789H39.0586V35.3483ZM22.2701 35.3483C20.7594 35.3483 19.5862 35.0241 18.6678 34.4894C17.7497 33.955 17.041 33.1839 16.4994 32.2207C15.4009 30.2669 15.014 27.5648 15.014 24.6699H13.3834C13.3834 27.651 13.7713 30.6957 15.0781 33.0198C15.7391 34.1955 16.6406 35.1961 17.8474 35.8986C19.0538 36.6009 20.5199 36.9789 22.2701 36.9789V35.3483ZM15.014 24.6699C15.014 21.8084 15.4006 19.1225 16.4988 17.1768C17.0402 16.2174 17.7489 15.448 18.6673 14.9143C19.5859 14.3804 20.7595 14.0561 22.2701 14.0561V12.4255C20.5198 12.4255 19.054 12.8035 17.8479 13.5045C16.6414 14.2057 15.7399 15.2039 15.0787 16.3754C13.7716 18.6914 13.3834 21.7201 13.3834 24.6699H15.014ZM101.875 0.802748H91.8661V2.43333H101.875V0.802748ZM91.8661 0.802748C87.6667 0.802748 81.3881 1.26836 76.1424 4.50807C70.825 7.7921 66.7075 13.8378 66.7075 24.6699H68.3381C68.3381 14.3227 72.2274 8.84248 76.9992 5.8954C81.8428 2.904 87.7359 2.43333 91.8661 2.43333V0.802748ZM66.7075 24.6699C66.7075 35.5334 70.8244 41.5801 76.1432 44.8565C81.3895 48.0882 87.6688 48.5371 91.8661 48.5371V46.9065C87.7337 46.9065 81.8414 46.4514 76.9984 43.4682C72.2281 40.5296 68.3381 35.0503 68.3381 24.6699H66.7075ZM91.8661 48.5371H101.875V46.9065H91.8661V48.5371ZM101.875 48.5371C106.072 48.5371 112.351 48.0882 117.598 44.8565C122.916 41.5801 127.033 35.5334 127.033 24.6699H125.403C125.403 35.0503 121.513 40.5296 116.742 43.4682C111.899 46.4514 106.007 46.9065 101.875 46.9065V48.5371ZM127.033 24.6699C127.033 13.8378 122.916 7.7921 117.598 4.50807C112.353 1.26836 106.074 0.802748 101.875 0.802748V2.43333C106.005 2.43333 111.898 2.904 116.742 5.8954C121.513 8.84248 125.403 14.3227 125.403 24.6699H127.033ZM105.232 35.3483H88.5084V36.9789H105.232V35.3483ZM88.5084 35.3483C85.5383 35.3483 83.7759 34.0991 82.7032 32.2166C81.5898 30.2628 81.1877 27.561 81.1877 24.6699H79.5572C79.5572 27.6548 79.9622 30.6999 81.2864 33.0239C82.6513 35.4192 84.9568 36.9789 88.5084 36.9789V35.3483ZM81.1877 24.6699C81.1877 21.8122 81.5896 19.1267 82.7025 17.1809C83.7751 15.3057 85.538 14.0561 88.5084 14.0561V12.4255C84.9571 12.4255 82.6521 13.9849 81.2871 16.3713C79.9625 18.6872 79.5572 21.7163 79.5572 24.6699H81.1877ZM88.5084 14.0561H105.232V12.4255H88.5084V14.0561ZM105.232 14.0561C108.203 14.0561 109.966 15.3057 111.038 17.1809C112.151 19.1267 112.553 21.8122 112.553 24.6699H114.184C114.184 21.7163 113.778 18.6872 112.454 16.3713C111.089 13.9849 108.784 12.4255 105.232 12.4255V14.0561ZM112.553 24.6699C112.553 27.561 112.151 30.2628 111.038 32.2166C109.965 34.0991 108.202 35.3483 105.232 35.3483V36.9789C108.784 36.9789 111.089 35.4192 112.454 33.0239C113.779 30.6999 114.184 27.6548 114.184 24.6699H112.553ZM171.176 34.6784L170.443 35.035L171.178 36.5456L171.91 35.0339L171.176 34.6784ZM155.098 1.61804L155.831 1.26147L155.608 0.802748H155.098V1.61804ZM135.275 1.61804V0.802748H134.459V1.61804H135.275ZM135.275 47.7218H134.459V48.5371H135.275V47.7218ZM147.478 47.7218V48.5371H148.294V47.7218H147.478ZM147.478 14.3385L148.215 13.9894L146.663 14.3385H147.478ZM163.298 47.7218L162.562 48.0709L162.783 48.5371H163.298V47.7218ZM178.989 47.7218V48.5371H179.505L179.726 48.0709L178.989 47.7218ZM194.809 14.3385H195.624L194.072 13.9894L194.809 14.3385ZM194.809 47.7218H193.994V48.5371H194.809V47.7218ZM207.078 47.7218V48.5371H207.893V47.7218H207.078ZM207.078 1.61804H207.893V0.802748H207.078V1.61804ZM187.19 1.61804V0.802748H186.679L186.456 1.26263L187.19 1.61804ZM171.909 34.3219L155.831 1.26147L154.365 1.97461L170.443 35.035L171.909 34.3219ZM155.098 0.802748H135.275V2.43333H155.098V0.802748ZM134.459 1.61804V47.7218H136.09V1.61804H134.459ZM135.275 48.5371H147.478V46.9065H135.275V48.5371ZM148.294 47.7218V14.3385H146.663V47.7218H148.294ZM146.742 14.6877L162.562 48.0709L164.035 47.3727L148.215 13.9894L146.742 14.6877ZM163.298 48.5371H178.989V46.9065H163.298V48.5371ZM179.726 48.0709L195.546 14.6877L194.072 13.9894L178.252 47.3727L179.726 48.0709ZM193.994 14.3385V47.7218H195.624V14.3385H193.994ZM194.809 48.5371H207.078V46.9065H194.809V48.5371ZM207.893 47.7218V1.61804H206.262V47.7218H207.893ZM207.078 0.802748H187.19V2.43333H207.078V0.802748ZM186.456 1.26263L170.442 34.323L171.91 35.0339L187.923 1.97345L186.456 1.26263ZM217.403 47.7218H216.588V48.5371H217.403V47.7218ZM229.607 47.7218V48.5371H230.423V47.7218H229.607ZM229.607 1.61804H230.423V0.802748H229.607V1.61804ZM217.403 1.61804V0.802748H216.588V1.61804H217.403ZM217.403 48.5371H229.607V46.9065H217.403V48.5371ZM230.423 47.7218V1.61804H228.792V47.7218H230.423ZM229.607 0.802748H217.403V2.43333H229.607V0.802748ZM216.588 1.61804V47.7218H218.219V1.61804H216.588ZM286.434 34.4847L285.817 35.0179L287.249 36.6746V34.4847H286.434ZM258.023 1.61804L258.639 1.08486L258.396 0.802748H258.023V1.61804ZM239.943 1.61804V0.802748H239.127V1.61804H239.943ZM239.943 47.7218H239.127V48.5371H239.943V47.7218ZM252.147 47.7218V48.5371H252.962V47.7218H252.147ZM252.147 14.8551L252.764 14.3219L251.331 12.6653V14.8551H252.147ZM280.558 47.7218L279.941 48.255L280.185 48.5371H280.558V47.7218ZM298.638 47.7218V48.5371H299.453V47.7218H298.638ZM298.638 1.61804H299.453V0.802748H298.638V1.61804ZM286.434 1.61804V0.802748H285.619V1.61804H286.434ZM287.051 33.9516L258.639 1.08486L257.406 2.15121L285.817 35.0179L287.051 33.9516ZM258.023 0.802748H239.943V2.43333H258.023V0.802748ZM239.127 1.61804V47.7218H240.758V1.61804H239.127ZM239.943 48.5371H252.147V46.9065H239.943V48.5371ZM252.962 47.7218V14.8551H251.331V47.7218H252.962ZM251.53 15.3883L279.941 48.255L281.175 47.1886L252.764 14.3219L251.53 15.3883ZM280.558 48.5371H298.638V46.9065H280.558V48.5371ZM299.453 47.7218V1.61804H297.823V47.7218H299.453ZM298.638 0.802748H286.434V2.43333H298.638V0.802748ZM285.619 1.61804V34.4847H287.249V1.61804H285.619ZM352.894 19.2459L352.094 19.4004L352.221 20.0612H352.894V19.2459ZM366.002 19.2459V20.0612H366.955L366.808 19.1198L366.002 19.2459ZM355.735 44.3641L356.481 44.0343L356.112 43.1998L355.324 43.6602L355.735 44.3641ZM357.221 47.7218L356.475 48.0516L356.69 48.5371H357.221V47.7218ZM366.002 47.7218V48.5371H366.818V47.7218H366.002ZM366.002 22.2808H366.818V21.4655H366.002V22.2808ZM330.876 22.2808V21.4655H330.06V22.2808H330.876ZM330.876 30.8042H330.06V31.6195H330.876V30.8042ZM353.023 30.8042L353.824 30.9575L354.01 29.9889H353.023V30.8042ZM328.68 14.0561H345.469V12.4255H328.68V14.0561ZM345.469 14.0561C347.482 14.0561 348.961 14.5944 350.01 15.4848C351.062 16.3779 351.765 17.6949 352.094 19.4004L353.695 19.0915C353.314 17.1165 352.466 15.4308 351.065 14.2416C349.66 13.0495 347.781 12.4255 345.469 12.4255V14.0561ZM352.894 20.0612H366.002V18.4307H352.894V20.0612ZM366.808 19.1198C365.507 10.8138 361.238 6.18743 356.282 3.67545C351.377 1.18982 345.861 0.802748 342.046 0.802748V2.43333C345.787 2.43333 350.989 2.82111 355.544 5.12989C360.048 7.41231 363.979 11.5999 365.197 19.3721L366.808 19.1198ZM342.046 0.802748H332.038V2.43333H342.046V0.802748ZM332.038 0.802748C327.838 0.802748 321.56 1.26836 316.314 4.50807C310.997 7.7921 306.879 13.8378 306.879 24.6699H308.51C308.51 14.3227 312.399 8.84248 317.171 5.8954C322.015 2.904 327.908 2.43333 332.038 2.43333V0.802748ZM306.879 24.6699C306.879 35.5334 310.996 41.5801 316.315 44.8565C321.561 48.0882 327.841 48.5371 332.038 48.5371V46.9065C327.905 46.9065 322.013 46.4514 317.17 43.4682C312.4 40.5296 308.51 35.0503 308.51 24.6699H306.879ZM332.038 48.5371H340.755V46.9065H332.038V48.5371ZM340.755 48.5371C344.858 48.5371 350.981 48.0871 356.147 45.068L355.324 43.6602C350.546 46.4526 344.788 46.9065 340.755 46.9065V48.5371ZM354.99 44.6939L356.475 48.0516L357.966 47.392L356.481 44.0343L354.99 44.6939ZM357.221 48.5371H366.002V46.9065H357.221V48.5371ZM366.818 47.7218V22.2808H365.187V47.7218H366.818ZM366.002 21.4655H330.876V23.0961H366.002V21.4655ZM330.06 22.2808V30.8042H331.691V22.2808H330.06ZM330.876 31.6195H353.023V29.9889H330.876V31.6195ZM352.223 30.6508C351.724 33.2527 349.391 35.3483 345.727 35.3483V36.9789C350.07 36.9789 353.16 34.4253 353.824 30.9575L352.223 30.6508ZM345.727 35.3483H328.68V36.9789H345.727V35.3483ZM328.68 35.3483C325.71 35.3483 323.948 34.0991 322.875 32.2166C321.762 30.2628 321.359 27.561 321.359 24.6699H319.729C319.729 27.6548 320.134 30.6999 321.458 33.0239C322.823 35.4192 325.129 36.9789 328.68 36.9789V35.3483ZM321.359 24.6699C321.359 21.8122 321.761 19.1267 322.874 17.1809C323.947 15.3057 325.71 14.0561 328.68 14.0561V12.4255C325.129 12.4255 322.824 13.9849 321.459 16.3713C320.134 18.6872 319.729 21.7163 319.729 24.6699H321.359ZM442.36 17.7608H441.545V18.5761H442.36V17.7608ZM454.629 17.7608V18.5761H455.444V17.7608H454.629ZM415.111 31.6436H415.926V30.8283H415.111V31.6436ZM402.907 31.6436V30.8283H402.092V31.6436H402.907ZM415.862 15.8237C415.862 15.256 415.995 14.9075 416.336 14.6508C416.742 14.3453 417.585 14.0561 419.308 14.0561V12.4255C417.48 12.4255 416.192 12.7175 415.355 13.3483C414.453 14.0279 414.231 14.9708 414.231 15.8237H415.862ZM419.308 14.0561H436.097V12.4255H419.308V14.0561ZM436.097 14.0561C438.687 14.0561 440.006 14.783 440.688 15.5213C441.384 16.2753 441.545 17.1797 441.545 17.7608H443.175C443.175 16.9214 442.948 15.5657 441.885 14.4149C440.808 13.2484 438.995 12.4255 436.097 12.4255V14.0561ZM442.36 18.5761H454.629V16.9455H442.36V18.5761ZM455.444 17.7608C455.444 15.0265 454.93 10.7537 451.761 7.16431C448.577 3.55766 442.859 0.802748 432.804 0.802748V2.43333C442.571 2.43333 447.766 5.10239 450.539 8.24342C453.327 11.4017 453.813 15.2003 453.813 17.7608H455.444ZM432.804 0.802748H424.603V2.43333H432.804V0.802748ZM424.603 0.802748C414.591 0.802748 408.884 3.0504 405.689 6.15015C402.481 9.26262 401.963 13.0807 401.963 15.8237H403.593C403.593 13.2718 404.076 9.98709 406.824 7.32045C409.586 4.64109 414.792 2.43333 424.603 2.43333V0.802748ZM401.963 15.8237C401.963 18.6647 402.614 20.9998 403.791 22.9051C404.965 24.8078 406.633 26.2331 408.592 27.3042C412.48 29.4307 417.597 30.2039 422.577 30.5521C425.078 30.727 427.577 30.796 429.9 30.8657C432.232 30.9357 434.376 31.0063 436.206 31.1819C438.054 31.3591 439.488 31.6364 440.442 32.0753C440.911 32.291 441.216 32.5249 441.402 32.7615C441.577 32.9842 441.674 33.2423 441.674 33.5807H443.304C443.304 32.886 443.091 32.2709 442.684 31.7537C442.288 31.2505 441.741 30.8779 441.124 30.594C439.906 30.0335 438.238 29.7387 436.362 29.5588C434.469 29.3772 432.27 29.3055 429.949 29.2358C427.618 29.1658 425.153 29.0976 422.69 28.9254C417.742 28.5795 412.932 27.8191 409.374 25.8736C407.61 24.9087 406.175 23.6633 405.178 22.0485C404.183 20.4361 403.593 18.4066 403.593 15.8237H401.963ZM441.674 33.5807C441.674 34.0567 441.529 34.4304 441.129 34.7216C440.679 35.0498 439.802 35.3483 438.163 35.3483V36.9789C439.946 36.9789 441.232 36.6639 442.089 36.0397C442.997 35.3785 443.304 34.4607 443.304 33.5807H441.674ZM438.163 35.3483H421.374V36.9789H438.163V35.3483ZM421.374 35.3483C418.826 35.3483 417.502 34.6102 416.807 33.8587C416.096 33.0885 415.926 32.1778 415.926 31.6436H414.296C414.296 32.4654 414.546 33.8147 415.61 34.9655C416.691 36.1349 418.499 36.9789 421.374 36.9789V35.3483ZM415.111 30.8283H402.907V32.4589H415.111V30.8283ZM402.092 31.6436C402.092 34.3469 402.607 38.6028 405.767 42.1835C408.942 45.7817 414.643 48.5371 424.668 48.5371V46.9065C414.933 46.9065 409.754 44.2379 406.989 41.1046C404.209 37.9538 403.722 34.1706 403.722 31.6436H402.092ZM424.668 48.5371H432.933V46.9065H424.668V48.5371ZM432.933 48.5371C442.914 48.5371 448.604 46.2891 451.79 43.1978C454.99 40.0941 455.508 36.293 455.508 33.5807H453.878C453.878 36.0988 453.396 39.3682 450.655 42.0274C447.901 44.6991 442.71 46.9065 432.933 46.9065V48.5371ZM455.508 33.5807C455.508 30.7475 454.858 28.4105 453.685 26.4964C452.513 24.5849 450.85 23.1421 448.896 22.0494C445.015 19.8794 439.908 19.048 434.933 18.6591C432.435 18.4638 429.939 18.3786 427.618 18.3005C425.288 18.222 423.145 18.151 421.314 17.986C419.467 17.8195 418.028 17.5635 417.069 17.1555C416.597 16.9542 416.294 16.7375 416.114 16.5247C415.948 16.3286 415.862 16.1101 415.862 15.8237H414.231C414.231 16.4977 414.455 17.0894 414.87 17.5788C415.27 18.0514 415.819 18.3954 416.431 18.6557C417.64 19.1708 419.299 19.4415 421.168 19.61C423.054 19.78 425.248 19.8522 427.564 19.9301C429.889 20.0084 432.349 20.0927 434.806 20.2848C439.744 20.6708 444.547 21.4859 448.1 23.4726C449.863 24.4583 451.298 25.7215 452.294 27.3483C453.29 28.9725 453.878 31.0062 453.878 33.5807H455.508ZM496.873 0.802748H486.865V2.43333H496.873V0.802748ZM486.865 0.802748C482.665 0.802748 476.387 1.26836 471.141 4.50807C465.824 7.7921 461.706 13.8378 461.706 24.6699H463.337C463.337 14.3227 467.226 8.84248 471.998 5.8954C476.841 2.904 482.734 2.43333 486.865 2.43333V0.802748ZM461.706 24.6699C461.706 35.5334 465.823 41.5801 471.142 44.8565C476.388 48.0882 482.667 48.5371 486.865 48.5371V46.9065C482.732 46.9065 476.84 46.4514 471.997 43.4682C467.227 40.5296 463.337 35.0503 463.337 24.6699H461.706ZM486.865 48.5371H496.873V46.9065H486.865V48.5371ZM496.873 48.5371C501.07 48.5371 507.35 48.0882 512.596 44.8565C517.915 41.5801 522.032 35.5334 522.032 24.6699H520.401C520.401 35.0503 516.511 40.5296 511.741 43.4682C506.898 46.4514 501.006 46.9065 496.873 46.9065V48.5371ZM522.032 24.6699C522.032 13.8378 517.914 7.7921 512.597 4.50807C507.351 1.26836 501.073 0.802748 496.873 0.802748V2.43333C501.003 2.43333 506.896 2.904 511.74 5.8954C516.512 8.84248 520.401 14.3227 520.401 24.6699H522.032ZM500.231 35.3483H483.507V36.9789H500.231V35.3483ZM483.507 35.3483C480.537 35.3483 478.774 34.0991 477.702 32.2166C476.588 30.2628 476.186 27.561 476.186 24.6699H474.556C474.556 27.6548 474.961 30.6999 476.285 33.0239C477.65 35.4192 479.955 36.9789 483.507 36.9789V35.3483ZM476.186 24.6699C476.186 21.8122 476.588 19.1267 477.701 17.1809C478.774 15.3057 480.537 14.0561 483.507 14.0561V12.4255C479.956 12.4255 477.651 13.9849 476.286 16.3713C474.961 18.6872 474.556 21.7163 474.556 24.6699H476.186ZM483.507 14.0561H500.231V12.4255H483.507V14.0561ZM500.231 14.0561C503.201 14.0561 504.964 15.3057 506.037 17.1809C507.15 19.1267 507.552 21.8122 507.552 24.6699H509.182C509.182 21.7163 508.777 18.6872 507.452 16.3713C506.087 13.9849 503.782 12.4255 500.231 12.4255V14.0561ZM507.552 24.6699C507.552 27.561 507.149 30.2628 506.036 32.2166C504.963 34.0991 503.201 35.3483 500.231 35.3483V36.9789C503.783 36.9789 506.088 35.4192 507.453 33.0239C508.777 30.6999 509.182 27.6548 509.182 24.6699H507.552ZM563.301 0.802748H553.292V2.43333H563.301V0.802748ZM553.292 0.802748C549.093 0.802748 542.814 1.26836 537.568 4.50807C532.251 7.7921 528.134 13.8378 528.134 24.6699H529.764C529.764 14.3227 533.654 8.84248 538.425 5.8954C543.269 2.904 549.162 2.43333 553.292 2.43333V0.802748ZM528.134 24.6699C528.134 35.5334 532.25 41.5801 537.569 44.8565C542.816 48.0882 549.095 48.5371 553.292 48.5371V46.9065C549.16 46.9065 543.267 46.4514 538.424 43.4682C533.654 40.5296 529.764 35.0503 529.764 24.6699H528.134ZM553.292 48.5371H563.301V46.9065H553.292V48.5371ZM563.301 48.5371C567.498 48.5371 573.777 48.0882 579.024 44.8565C584.342 41.5801 588.459 35.5334 588.459 24.6699H586.829C586.829 35.0503 582.939 40.5296 578.168 43.4682C573.325 46.4514 567.433 46.9065 563.301 46.9065V48.5371ZM588.459 24.6699C588.459 13.8378 584.342 7.7921 579.024 4.50807C573.779 1.26836 567.5 0.802748 563.301 0.802748V2.43333C567.431 2.43333 573.324 2.904 578.168 5.8954C582.939 8.84248 586.829 14.3227 586.829 24.6699H588.459ZM566.658 35.3483H549.935V36.9789H566.658V35.3483ZM549.935 35.3483C546.964 35.3483 545.202 34.0991 544.129 32.2166C543.016 30.2628 542.614 27.561 542.614 24.6699H540.983C540.983 27.6548 541.388 30.6999 542.713 33.0239C544.077 35.4192 546.383 36.9789 549.935 36.9789V35.3483ZM542.614 24.6699C542.614 21.8122 543.016 19.1267 544.129 17.1809C545.201 15.3057 546.964 14.0561 549.935 14.0561V12.4255C546.383 12.4255 544.078 13.9849 542.713 16.3713C541.389 18.6872 540.983 21.7163 540.983 24.6699H542.614ZM549.935 14.0561H566.658V12.4255H549.935V14.0561ZM566.658 14.0561C569.629 14.0561 571.392 15.3057 572.464 17.1809C573.577 19.1267 573.979 21.8122 573.979 24.6699H575.61C575.61 21.7163 575.204 18.6872 573.88 16.3713C572.515 13.9849 570.21 12.4255 566.658 12.4255V14.0561ZM573.979 24.6699C573.979 27.561 573.577 30.2628 572.464 32.2166C571.391 34.0991 569.628 35.3483 566.658 35.3483V36.9789C570.21 36.9789 572.516 35.4192 573.88 33.0239C575.205 30.6999 575.61 27.6548 575.61 24.6699H573.979ZM643.192 34.4847L642.575 35.0179L644.007 36.6746V34.4847H643.192ZM614.781 1.61804L615.397 1.08486L615.153 0.802748H614.781V1.61804ZM596.701 1.61804V0.802748H595.885V1.61804H596.701ZM596.701 47.7218H595.885V48.5371H596.701V47.7218ZM608.905 47.7218V48.5371H609.72V47.7218H608.905ZM608.905 14.8551L609.521 14.3219L608.089 12.6653V14.8551H608.905ZM637.316 47.7218L636.699 48.255L636.943 48.5371H637.316V47.7218ZM655.396 47.7218V48.5371H656.211V47.7218H655.396ZM655.396 1.61804H656.211V0.802748H655.396V1.61804ZM643.192 1.61804V0.802748H642.377V1.61804H643.192ZM643.809 33.9516L615.397 1.08486L614.164 2.15121L642.575 35.0179L643.809 33.9516ZM614.781 0.802748H596.701V2.43333H614.781V0.802748ZM595.885 1.61804V47.7218H597.516V1.61804H595.885ZM596.701 48.5371H608.905V46.9065H596.701V48.5371ZM609.72 47.7218V14.8551H608.089V47.7218H609.72ZM608.288 15.3883L636.699 48.255L637.933 47.1886L609.521 14.3219L608.288 15.3883ZM637.316 48.5371H655.396V46.9065H637.316V48.5371ZM656.211 47.7218V1.61804H654.58V47.7218H656.211ZM655.396 0.802748H643.192V2.43333H655.396V0.802748ZM642.377 1.61804V34.4847H644.007V1.61804H642.377Z" fill="white"/>
</svg>
