<svg width="703" height="196" viewBox="0 0 703 196" fill="none" xmlns="http://www.w3.org/2000/svg">
<path d="M162.688 82.7218C147.96 82.7218 137.232 79.3219 129.868 72.3252L128.76 71.2694L127.632 72.3252C120.309 79.3219 109.601 82.7218 94.8112 82.7218H93.8471C64.9651 82.7218 50.2574 68.8 50.2574 41.3678V0.0317383H69.7446V42.5668C69.7446 57.2939 75.2215 64.4516 86.5035 64.4516H102.36C113.642 64.4516 119.119 57.2939 119.119 42.6026V0.0317383H138.585V42.5668C138.585 47.9351 138.585 64.4158 155.242 64.4158H171.221C187.857 64.4158 187.857 47.9709 187.857 42.5668V0.0317383H207.447V41.3678C207.447 68.8 192.76 82.7218 163.775 82.7218H162.688Z" fill="white"/>
<path d="M128.602 71.4659C128.647 71.3997 129.924 70.5711 130 70.5316C123.497 63.6781 119.125 54.6093 119.084 41.7432V42.7811C119.084 57.4724 113.422 64.6302 102.161 64.6302H86.2839C75.0224 64.6302 69.525 57.4724 69.525 42.7811V0.246094H50.0583V41.5822C50.0583 69.0143 64.7455 82.9183 93.7506 82.9183H94.6941C109.422 82.9183 120.15 79.5184 127.515 72.5395L128.643 71.4659H128.602Z" fill="white"/>
<path d="M340.337 83.3356V48.4773H250.86V83.3356H231.64V0.0371094H250.86V35.0207H340.337V0.0371094H359.557V83.3356H340.337Z" fill="white"/>
<path d="M403.189 0.0371094H383.968V83.3356H403.189V0.0371094Z" fill="white"/>
<path d="M464.13 83.3356V15.14H424.561V0.0371094H523.802V15.14H483.351V83.3356H464.13Z" fill="white"/>
<path d="M545.2 83.3356V0.0371094H653.2V14.7642H564.421V35.2712H653.2V48.7278H564.421V68.6085H653.2V83.3356H545.2Z" fill="white"/>
<path d="M1 193.78V194.78H2H20.9948H21.9948V193.78V171.991H72.1331C82.7404 171.991 94.2745 171.147 103.179 166.863C107.653 164.711 111.492 161.677 114.206 157.428C116.92 153.177 118.466 147.778 118.466 140.968C118.466 134.157 116.915 128.758 114.193 124.508C111.473 120.258 107.627 117.225 103.148 115.073C94.2334 110.789 82.6999 109.945 72.1331 109.945H2H1V110.945V193.78ZM74.4511 154.864H21.9948V127.179H74.4511C79.7746 127.179 85.2528 127.597 89.3779 129.545C91.4189 130.509 93.0974 131.834 94.2713 133.646C95.4441 135.457 96.1587 137.825 96.1587 140.95C96.1587 144.075 95.4397 146.452 94.2594 148.278C93.0777 150.105 91.3893 151.448 89.3419 152.43C85.2062 154.412 79.7272 154.864 74.4511 154.864Z" stroke="white" stroke-width="2"/>
<path d="M136.813 193.776V194.776H137.813H242.346H243.346V193.776V178.916V177.916H242.346H157.664V160.477H242.346H243.346V159.477V145.882V144.882H242.346H157.664V126.801H242.346H243.346V125.801V110.941V109.941H242.346H137.813H136.813V110.941V193.776Z" stroke="white" stroke-width="2"/>
<path d="M354.215 194.481L354.508 194.776H354.923H389.385H390.385V193.776V110.941V109.941H389.385H370.534H369.534V110.941V179.309L300.781 110.236L300.488 109.941H300.072H265.611H264.611V110.941V193.776V194.776H265.611H284.462H285.462V193.776V125.408L354.215 194.481Z" stroke="white" stroke-width="2"/>
<path d="M460.317 194.776H460.316C443.186 194.776 430.267 191.374 421.621 184.293C412.934 177.179 408.732 166.496 408.732 152.35C408.732 138.203 412.934 127.525 421.621 120.415C430.268 113.338 443.186 109.941 460.316 109.941H483.065C497.517 109.941 508.936 112.36 517.324 117.368C525.75 122.4 531.033 129.997 533.272 140.143L533.54 141.358H532.295H511.783H511.027L510.821 140.632C509.576 136.247 507.208 132.889 503.862 130.618C500.506 128.339 496.095 127.104 490.696 127.104H452.747C447.745 127.104 442.384 128.215 438.28 131.83C434.2 135.424 431.183 141.653 431.183 152.278C431.183 162.904 434.2 169.171 438.283 172.801C442.389 176.452 447.751 177.595 452.747 177.595H490.634C497.442 177.595 501.902 175.862 504.912 173.371C507.933 170.869 509.606 167.51 510.662 164.049L510.878 163.341H511.619H532.295H533.544L533.271 164.56C531.001 174.694 525.719 182.29 517.301 187.324C508.921 192.335 497.518 194.758 483.066 194.758L460.317 194.776ZM460.317 194.776L483.065 194.758L460.317 194.776Z" stroke="white" stroke-width="2"/>
<path d="M573.254 110.941V109.941H572.254H553.402H552.402V110.941V193.776V194.776H553.402H572.254H573.254V193.776V110.941Z" stroke="white" stroke-width="2"/>
<path d="M594.516 193.776V194.776H595.516H700.07H701.07V193.776V178.916V177.916H700.07H615.511V110.941V109.941H614.511H595.516H594.516V110.941V193.776Z" stroke="white" stroke-width="2"/>
</svg>
