<svg width="432" height="223" viewBox="0 0 432 223" fill="none" xmlns="http://www.w3.org/2000/svg">
<path fill-rule="evenodd" clip-rule="evenodd" d="M178.321 115.853C181.676 104.82 181.964 100.04 179.609 97.21C178.879 96.5215 177.997 96.0162 177.034 95.7355C175.629 95.1502 175.132 95.2415 172.548 95.7162L172.442 95.7355C168.529 96.4473 164.192 98.5658 157.788 102.904C144.234 111.819 124.141 130.224 112.045 144.918C100.863 158.256 99.2195 164.272 104.624 169.357C108.25 172.628 113.84 174.492 129.766 177.712C145.691 180.932 152.908 183.135 157.889 186.677C161.922 189.406 163.751 192.796 163.192 196.185C162.108 202.337 155.873 209.116 146.589 214.201C142.34 216.695 137.682 218.416 132.832 219.285C127.75 220.217 126.056 220.149 124.361 219.014C123.734 218.471 123.531 218.133 123.362 216.438C123.279 213.109 124.124 209.823 125.801 206.947C128.364 202.327 131.495 198.045 135.119 194.202C136.434 192.823 137.573 191.286 138.508 189.626C138.474 189.372 137.898 189.084 137.339 188.931L137.265 188.901L137.19 188.87C136.941 188.766 136.749 188.686 136.555 188.678C135.9 188.654 135.215 189.455 132.225 192.953L132.225 192.953L131.765 193.49C128.249 197.383 125.164 201.644 122.565 206.201C120.295 210.964 119.414 215.438 120.668 217.963C121.922 220.488 125.496 222.031 129.935 222.031C134.02 221.656 138.043 220.779 141.913 219.421C148.012 217.053 153.683 213.704 158.703 209.506C161.911 206.575 164.384 202.929 165.92 198.863C167.224 194.558 165.581 190.66 161.21 186.881C155.619 182.135 147.623 179.288 128.682 175.441C112.502 172.272 108.3 170.814 106.2 167.916C105.563 167.196 105.089 166.346 104.81 165.425C104.693 163.541 105.072 161.659 105.912 159.968C109.52 151.833 125.818 133.614 142.303 119.157C156.398 106.718 167.987 99.2098 174.577 97.9896C177.118 97.4811 177.813 97.7862 178.067 99.1759C178.982 104.125 174.594 119.361 166.987 137.156C161.938 148.85 161.583 151.917 164.548 153.087C165.835 153.578 166.072 153.409 166.394 153.087C166.716 152.765 166.682 152.629 166.394 152.426C166.071 152.156 165.859 151.775 165.801 151.358C165.496 150.087 166.852 145.308 169.19 140.223C172.849 131.682 175.729 123.818 178.321 115.853ZM183.555 188.274C188.043 184.668 192.38 180.878 196.555 176.915C196.151 179.574 196.117 181.808 196.531 183.133C196.866 184.268 197.526 185.281 198.429 186.046C199.332 186.811 200.439 187.295 201.614 187.438C202.263 187.442 202.907 187.321 203.511 187.082C205.985 186.235 209.407 182.065 212.355 176.659C213.202 174.93 213.727 173.93 213.727 174.185V176.286C213.998 179.235 215.828 180.608 218.691 179.828C219.939 179.45 221.813 178.26 223.915 176.564C223.351 178.249 223.201 179.688 223.604 180.646C224.328 181.656 225.337 182.429 226.501 182.866C227.198 182.96 227.904 182.96 228.601 182.866C230.753 182.476 232.329 181.018 238.411 174.239C239.213 173.34 239.967 172.487 240.644 171.72L240.649 171.714L240.65 171.714L240.65 171.713C242.459 169.665 243.718 168.24 243.866 168.24C244.033 168.24 243.983 168.742 243.913 169.447C243.898 169.601 243.881 169.764 243.866 169.935C243.138 174.138 243.663 176.273 245.56 177.358C246.33 177.804 247.199 178.047 248.088 178.065C248.977 178.082 249.856 177.874 250.643 177.459C257.243 173.175 263.569 168.483 269.584 163.41C269.783 163.223 269.981 163.035 270.177 162.846C269.892 164.458 269.854 165.933 270.159 167.039C270.235 167.551 270.428 168.039 270.721 168.464C271.015 168.89 271.402 169.243 271.853 169.497C272.626 169.975 273.483 170.302 274.378 170.463C276.453 170.652 278.531 170.132 280.273 168.988C282 167.875 291.73 160.882 296.029 157.589C295.337 160.71 295.274 163.94 295.846 167.089C296.156 167.727 296.592 168.297 297.128 168.763C297.664 169.229 298.288 169.582 298.963 169.8C301.369 170.394 304.639 168.207 307.434 164.157C308.372 162.798 309.204 161.371 309.925 159.886C310.416 159.005 310.823 158.411 311.331 158.31C314.826 157.014 318.224 155.468 321.496 153.683C324.478 151.988 327.511 149.497 327.511 148.599C327.437 148.258 327.267 147.946 327.019 147.7C326.443 147.412 326.054 147.48 323.529 149.395C320.173 151.629 316.624 153.558 312.924 155.157L311.704 155.632L311.789 154.7C311.69 153.457 311.503 152.222 311.229 151.005L311.221 150.959C310.771 148.524 310.664 147.948 309.688 146.836C306.909 143.141 302.792 143.65 299.014 148.022C297.595 149.675 296.716 151.721 296.495 153.885C295.883 154.307 295.292 154.761 294.725 155.243C290.473 158.514 279.748 166.276 278.054 167.242C275.936 168.564 274.445 169.073 273.7 168.564C272.954 168.056 272.87 167.548 273.124 165.395C273.456 162.589 274.282 159.863 275.564 157.345C276.614 155.176 278.308 153.023 279.206 152.871C280.46 152.633 279.748 151.583 278.223 151.074C277.934 150.95 277.623 150.886 277.309 150.886C276.994 150.886 276.683 150.95 276.394 151.074C274.741 152.048 273.017 154.668 271.769 157.617C270.85 158.236 270.013 158.969 269.279 159.8C266.229 163.105 250.457 174.951 248.339 175.595L246.865 176.12L246.661 174.985C246.255 172.9 247.61 165.443 250.016 159.24C252.422 153.038 257.826 140.75 261.52 134.175C265.213 127.599 274.497 111.854 276.767 108.55L279.461 104.652L278.563 104.024C277.157 102.838 276.462 103.448 273.972 106.838C270.634 111.448 258.944 131.632 255.556 138.564C252.202 145.14 248.085 154.817 246.611 158.901C246.211 160.432 245.489 161.859 244.493 163.088C244.057 163.693 243.538 164.235 242.951 164.698C242.842 164.713 242.762 164.285 242.657 163.729L242.657 163.728L242.629 163.579C242.57 163.217 242.426 162.875 242.208 162.58C241.989 162.285 241.704 162.047 241.376 161.884C240.824 161.462 240.18 161.177 239.496 161.053C238.813 160.929 238.11 160.97 237.445 161.173C236.147 161.403 234.939 161.99 233.955 162.867C233.115 163.531 232.288 164.275 231.491 165.073C231.088 165.264 230.67 165.693 230.026 166.507C226.463 170.704 222.401 174.449 217.929 177.659C217.082 178.066 217.082 178.066 216.912 177.066C216.828 173.866 217.164 170.67 217.912 167.558C218.641 163.711 218.624 162.914 217.505 162.474C215.76 161.609 215.439 161.931 212.846 167.795C208.73 177.473 205.883 181.93 203.02 184.167C201.428 185.506 200.665 185.641 200.106 184.692C198.971 182.811 199.157 178.845 200.665 173.575C202.004 168.744 202.817 166.762 203.579 166.609C205.104 166.338 204.003 164.287 202.309 163.965C200.953 163.694 200.58 163.897 199.649 165.897C198.832 167.904 198.14 169.996 197.597 172.021C197.424 172.193 197.24 172.39 197.041 172.614C196.707 172.891 196.17 173.416 195.516 174.056L195.516 174.056L195.515 174.056L195.515 174.057L195.514 174.057C194.605 174.946 193.47 176.055 192.348 177.021C190.416 178.681 187.858 181.122 186.52 182.427C184.354 184.648 181.799 186.452 178.98 187.748L177.608 188.138L177.303 186.444C177.049 184.274 177.286 182.003 178.642 177.292C180.153 172.085 182.021 166.989 184.232 162.039L185.503 159.056L189.468 157.785C191.021 157.294 192.528 156.671 193.974 155.921L194.669 155.395L193.737 154.649L193.678 154.617C192.849 154.153 192.676 154.056 190.755 154.802C188.79 155.565 186.994 156.005 186.994 155.751C187.322 154.563 187.724 153.398 188.197 152.26C190.128 147.175 190.925 143.65 190.772 142.091C190.586 141.091 190.552 140.956 189.298 140.532C188.556 140.281 188.253 140.179 188.073 140.285C187.949 140.358 187.884 140.53 187.773 140.82C187.546 141.234 187.452 141.707 187.502 142.176C187.79 143.701 183.03 157.039 182.098 157.598L178.709 158.48C174.22 159.7 173.762 160.056 175.236 160.954C175.965 161.344 176.371 161.412 178.625 160.869L181.285 160.378L178.93 166.055C175.406 174.699 173.661 181.579 173.983 185.461C174.034 186.402 174.359 187.309 174.919 188.068C175.479 188.827 176.249 189.405 177.134 189.731C178.244 189.999 179.401 190.007 180.515 189.754C181.628 189.501 182.669 188.995 183.555 188.274ZM300.069 154.288C300.256 154.085 300.322 153.945 300.294 153.827C300.287 153.797 300.274 153.769 300.256 153.742C300.447 153.214 300.666 152.696 300.912 152.192C301.063 151.708 301.149 151.207 301.166 150.7C301.081 150.327 301.606 149.565 302.589 148.48C305.944 145.362 307.18 145.65 308.349 149.904C308.828 152.029 308.787 154.238 308.231 156.344C307.96 157.055 307.588 157.123 305.559 157.495L305.554 157.496C302.894 157.988 300.725 157.598 300.014 156.547C299.658 156.157 299.726 155.683 300.014 154.463C300.032 154.404 300.05 154.346 300.069 154.288ZM241.172 165.308L242.172 165.782L236.717 171.765C233.803 175.07 230.736 178.391 229.94 179.052C229.294 179.753 228.502 180.303 227.619 180.662L226.653 181.103L226.551 179.815C226.433 175.646 234.192 165.155 238.834 163.257C239.664 162.833 239.664 162.833 239.851 163.85C239.873 164.207 240.016 164.546 240.256 164.811C240.496 165.075 240.819 165.251 241.172 165.308ZM277.749 146.515C276.394 145.583 276.292 144.278 277.359 142.261C277.851 141.38 279.138 141.262 280.24 142.261C280.85 142.685 281.188 143.143 281.104 143.414C281.044 143.716 281.044 144.027 281.104 144.329C281.005 144.875 280.783 145.391 280.454 145.838C280.125 146.284 279.698 146.649 279.206 146.905C278.691 146.935 278.18 146.798 277.749 146.515ZM304.859 159.733C305.37 159.688 305.884 159.722 306.384 159.835C306.706 160.174 303.961 164.089 302.623 165.394C301.285 166.699 299.302 167.97 298.997 167.767C298.404 167.36 298.269 163.835 298.743 159.954L298.98 158.462L301.234 159.225C302.422 159.514 303.637 159.685 304.859 159.733Z" fill="url(#paint0_linear)"/>
<path d="M100.69 51.2698C91.6444 51.2698 85.0554 49.1816 80.5326 44.8844L79.8523 44.236L79.1594 44.8844C74.6618 49.1816 68.0855 51.2698 59.0021 51.2698H58.4099C40.6714 51.2698 31.6384 42.7194 31.6384 25.8713V0.483887H43.6069V26.6077C43.6069 35.6526 46.9706 40.0487 53.8997 40.0487H63.6382C70.5673 40.0487 73.9311 35.6526 73.9311 26.6297V0.483887H85.8869V26.6077C85.8869 29.9047 85.8869 40.0267 96.1168 40.0267H105.931C116.148 40.0267 116.148 29.9267 116.148 26.6077V0.483887H128.18V25.8713C128.18 42.7194 119.159 51.2698 101.358 51.2698H100.69Z" fill="white"/>
<path d="M79.7552 44.3569C79.783 44.3162 80.5673 43.8073 80.6139 43.7831C76.6203 39.5738 73.9348 34.0041 73.9096 26.1021V26.7395C73.9096 35.7625 70.4324 40.1586 63.5159 40.1586H53.7648C46.8483 40.1586 43.4719 35.7625 43.4719 26.7395V0.615723H31.5161V26.0032C31.5161 42.8512 40.5365 51.3906 58.3506 51.3906H58.9301C67.9757 51.3906 74.5647 49.3025 79.0875 45.0163L79.7804 44.3569H79.7552Z" fill="white"/>
<path d="M209.797 51.6468V30.2379H154.843V51.6468H143.038V0.487305H154.843V21.9732H209.797V0.487305H221.601V51.6468H209.797Z" fill="white"/>
<path d="M248.399 0.487305H236.594V51.6468H248.399V0.487305Z" fill="white"/>
<path d="M285.827 51.6468V9.76306H261.525V0.487305H322.476V9.76306H297.632V51.6468H285.827Z" fill="white"/>
<path d="M335.618 51.6468V0.487305H401.948V9.53227H347.423V22.1271H401.948V30.3917H347.423V42.6019H401.948V51.6468H335.618Z" fill="white"/>
<path d="M1.38583 119.479V120.093H2H13.6661H14.2802V119.479V106.097H45.0738C51.5885 106.097 58.6723 105.579 64.1415 102.947C66.8892 101.625 69.2466 99.7623 70.9135 97.1524C72.5808 94.5417 73.5303 91.226 73.5303 87.0434C73.5303 82.8604 72.5775 79.5445 70.906 76.9339C69.2351 74.324 66.873 72.4612 64.1223 71.1394C58.6471 68.5083 51.5635 67.9901 45.0738 67.9901H2H1.38583V68.6042V119.479ZM46.4974 95.5777H14.2802V78.5748H46.4974C49.7669 78.5748 53.1315 78.831 55.665 80.0275C56.9185 80.6195 57.9494 81.4332 58.6704 82.5464C59.3907 83.6586 59.8296 85.1128 59.8296 87.0325C59.8296 88.9513 59.3879 90.4114 58.663 91.5326C57.9373 92.6552 56.9003 93.48 55.6429 94.0827C53.1029 95.3002 49.7378 95.5777 46.4974 95.5777Z" stroke="white" stroke-width="1.22834"/>
<path d="M84.7982 119.476V120.09H85.4124H149.614H150.228V119.476V110.35V109.735H149.614H97.6044V99.0248H149.614H150.228V98.4106V90.061V89.4469H149.614H97.6044V78.3423H149.614H150.228V77.7281V68.6016V67.9874H149.614H85.4124H84.7982V68.6016V119.476Z" stroke="white" stroke-width="1.22834"/>
<path d="M218.32 119.909L218.5 120.09H218.755H239.921H240.535V119.476V68.6016V67.9874H239.921H228.343H227.728V68.6016V110.591L185.503 68.1683L185.323 67.9874H185.067H163.902H163.288V68.6016V119.476V120.09H163.902H175.48H176.094V119.476V77.4867L218.32 119.909Z" stroke="white" stroke-width="1.22834"/>
<path d="M283.485 120.09H283.485C272.964 120.09 265.03 118.001 259.719 113.652C254.384 109.283 251.803 102.722 251.803 94.0334C251.803 85.3449 254.384 78.7865 259.719 74.4199C265.03 70.0737 272.964 67.9874 283.485 67.9874H297.456C306.333 67.9874 313.346 69.4725 318.497 72.5486C323.672 75.6391 326.917 80.3052 328.292 86.5363L328.457 87.2828H327.692H315.094H314.63L314.503 86.8364C313.738 84.1433 312.284 82.0814 310.229 80.6861C308.168 79.2867 305.459 78.5283 302.143 78.5283H278.836C275.764 78.5283 272.471 79.2105 269.95 81.4309C267.445 83.6382 265.592 87.4639 265.592 93.9896C265.592 100.515 267.445 104.364 269.953 106.594C272.474 108.836 275.767 109.538 278.836 109.538H302.105C306.286 109.538 309.025 108.474 310.874 106.944C312.729 105.408 313.757 103.345 314.406 101.219L314.538 100.784H314.993H327.692H328.459L328.291 101.532C326.897 107.757 323.653 112.422 318.483 115.514C313.337 118.591 306.333 120.079 297.457 120.079L283.485 120.09ZM283.485 120.09L297.456 120.079L283.485 120.09Z" stroke="white" stroke-width="1.22834"/>
<path d="M352.847 68.6016V67.9874H352.233H340.655H340.041V68.6016V119.476V120.09H340.655H352.233H352.847V119.476V68.6016Z" stroke="white" stroke-width="1.22834"/>
<path d="M365.906 119.476V120.09H366.52H430.734H431.348V119.476V110.35V109.735H430.734H378.801V68.6016V67.9874H378.186H366.52H365.906V68.6016V119.476Z" stroke="white" stroke-width="1.22834"/>
<defs>
<linearGradient id="paint0_linear" x1="89.6998" y1="230.14" x2="373.353" y2="163.431" gradientUnits="userSpaceOnUse">
<stop stop-color="#4FAEED"/>
<stop offset="0.213542" stop-color="#4E72D9"/>
<stop offset="0.40625" stop-color="#5959D0"/>
<stop offset="0.567708" stop-color="#7E4DBF"/>
<stop offset="0.770833" stop-color="#C04EA5"/>
<stop offset="1" stop-color="#ED7A4F"/>
</linearGradient>
</defs>
</svg>
