<svg width="362" height="201" viewBox="0 0 362 201" fill="none" xmlns="http://www.w3.org/2000/svg">
<path d="M159.482 55.2831C165.458 38.8575 170.135 27.8624 174.658 19.4502C177.643 13.9914 183.549 5.2085 183.905 5.74831C184.261 6.28814 183.603 17.2653 182.559 26.016C181.621 35.1618 180.472 43.5173 177.541 61.0329C173.669 84.5187 171.885 102.362 171.696 120.626C171.376 139.983 172.28 146.518 176.342 149.03C177.594 149.753 180.033 150.158 180.467 149.407C180.611 149.156 179.898 148.077 179.133 146.799C177.707 144.64 177.495 143.85 177.241 140.529C176.001 128.79 176.91 106.099 179.297 85.7638C179.833 82.2318 181.532 71.1875 183.102 61.2371C184.671 51.2867 186.41 39.5967 187.129 35.1684C188.487 24.4276 189.6 8.03428 188.951 4.8199C188.71 2.34293 188.407 2.0007 186.706 1.18576C184.649 -0.168993 182.423 0.2158 180.369 2.03667C177.631 4.46449 170.148 16.8465 165.693 26.2997C160.475 37.6512 149.074 67.8136 144.993 81.8255C144.481 83.8685 142.132 91.6984 140.178 99.4224C135.705 116.716 130.876 133.469 130.626 133.325C130.124 133.035 132.616 101.237 136.103 63.6652C138.979 34.0928 139.194 26.1996 136.656 19.891C134.938 15.0571 131.931 13.3214 127.782 14.4332C123.633 15.545 119.685 19.7795 111.016 32.4792C94.2051 56.6789 76.4213 93.8458 62.9211 131.983C57.5768 147.604 51.1954 166.467 49.4247 173.295C46.1442 184.763 44.5957 190.049 44.3452 189.904C43.897 189.812 45.021 171.087 45.9588 161.941C46.4806 157.565 47.824 145.981 49.2487 136.281C52.8911 107.986 57.5877 68.6083 57.859 64.0883C58.2569 55.2988 56.697 51.0577 51.9898 48.5071C47.7837 46.2457 43.6201 46.5142 37.181 50.1455C29.9515 53.9887 22.514 60.2171 13.249 69.9C1.44382 81.9578 -1.21275 86.2698 1.92412 86.9117C3.71661 87.2785 5.0468 86.7103 5.71708 85.26C6.18978 83.8627 10.2295 79.1801 16.8624 72.3202C29.8777 58.4557 44.7423 48.3313 49.0931 50.3421C50.9915 51.1041 52.4597 55.7933 52.4531 61.3012C52.6158 65.0696 49.5623 90.0303 44.6927 127.972C41.1135 154.133 40.2145 162.633 39.4781 174.901C38.7275 186.327 38.6434 193.126 39.2013 196.789C39.5331 198.817 39.639 199.213 40.8387 199.738C41.5903 200.172 42.5395 200.553 42.9876 200.645C44.4766 200.669 45.2141 200.26 46.1878 199.152C47.3979 197.345 50.3787 188.711 53.6592 177.243C56.3224 167.423 66.5241 136.735 70.9901 124.95C77.1106 108.274 84.9422 90.0802 93.5255 72.3207C104.462 49.9069 123.665 20.4072 129.275 17.6334C130.605 17.0652 130.605 17.0652 131.582 19.1328C133.961 24.8487 133.722 34.2309 130.831 62.9599C128.54 86.0222 126.382 111.166 125.607 124.081C124.614 141.712 125.041 146.469 127.546 147.915C128.799 148.638 131.223 148.201 132.052 147.343C132.394 147.04 133.287 144.047 134.126 140.858C134.966 137.668 137.171 130.089 138.758 124.157C140.345 118.226 143.192 107.509 145.305 100.378C150.289 81.0417 152.599 73.8575 159.482 55.2831ZM254.134 96.2071C253.488 96.1683 249.473 99.3619 243.655 104.521C229.715 116.516 221.974 122.402 214.166 127.247C206.502 131.842 199.047 134.051 196.739 132.552C193.786 131.014 194.462 124.055 198.735 115.498L199.641 113.35L204.398 112.922C213.713 112.12 224.21 107.825 228.644 103.037C232.106 99.3564 234.695 94.0035 234.113 91.83C233.265 88.6685 227.334 87.0812 221.999 88.5107C216.664 89.9402 208.62 95.4841 202.961 101.236C194.722 110.009 189.018 121.914 189.777 128.699C190.441 132.757 194.266 135.967 199.234 136.331C200.472 136.21 203.147 135.917 205.518 135.282C214.805 132.794 224.179 126.682 241.792 111.797C255.192 100.159 257.246 98.338 257.087 97.7452C256.928 97.1525 255.227 96.3375 254.134 96.2071ZM204.298 107.019C209.061 101.084 215.13 96.0693 221.28 92.939C224.282 91.4991 227.641 90.5991 228.788 90.9271C229.935 91.2552 229.042 94.2474 227.109 97.3068C224.833 100.67 221.609 103.651 217.131 105.91C213.984 107.6 207.714 109.492 203.801 109.905L201.97 110.184L204.298 107.019ZM307.744 81.8423C305.358 81.6343 297.251 89.313 288.646 99.878C280.383 110.139 279.698 110.746 279.55 107.821C279.31 105.344 279.701 102.063 280.537 95.6974C281.595 87.79 281.605 85.4577 280.194 84.1417C278.927 82.5752 276.58 81.7215 274.802 82.198C271.443 83.098 264.39 91.5529 257.722 102.234L255.934 105.043L256.628 102.104C257.034 99.6654 260.787 86.8003 261.588 84.2562C261.824 83.5576 261.718 83.1624 260.716 82.5838C258.963 81.5713 257.526 81.7443 256.856 83.1946C254.016 88.4028 246.821 120.827 248.141 122.591C248.444 122.933 249.196 123.367 250.092 123.55C252.135 124.062 252.53 123.956 253.567 120.713C254.604 117.47 260.429 106.803 265.072 99.6295C269.425 92.9567 276.242 85.2006 276.559 86.3861C276.612 86.5837 276.168 89.6676 275.83 93.1467C274.535 101.753 274.317 106.47 274.952 108.841C275.482 110.817 276.036 111.304 277.79 112.317C279.794 113.474 279.991 113.421 282.112 112.641C285.023 111.649 286.826 109.684 293.194 101.836C298.101 95.65 302.681 90.611 307.183 86.8634C308.894 85.346 310.408 83.8815 310.355 83.6839C310.591 82.9853 309.286 82.0645 307.744 81.8423ZM358.827 68.1546C357.786 68.2218 357.101 68.8287 355.747 70.8859C351.143 77.414 341.444 87.8485 338.007 90.04C336.73 90.8058 336.73 90.8058 336.306 89.225C335.777 87.2492 335.861 80.4498 336.697 74.0844C337.388 67.9695 337.268 66.731 335.422 66.1666C332.575 65.0236 332.088 65.5776 328.726 75.1612C323.435 90.9798 319.49 98.3899 315.239 102.282C312.896 104.604 311.711 104.922 310.694 103.5C308.662 100.656 308.457 94.3578 310.199 85.8435C311.705 78.0278 312.742 74.785 313.928 74.4674C316.299 73.8321 314.411 70.7377 311.577 70.4381C309.39 70.1772 308.85 70.5336 307.615 73.8293C304.176 84.7043 302.991 96.8812 304.855 101.464C306.757 105.402 309.922 107.731 313.493 107.621C314.336 107.607 315.719 107.236 316.457 106.827C320.25 105.175 325.143 98.146 329.112 89.2468C330.255 86.3993 331.017 84.5009 330.978 85.1466C331.084 85.5418 331.112 87.2284 331.232 88.4669C332.055 93.1173 335.114 95.0507 339.553 93.4378C343.004 92.0896 349.309 86.3765 355.045 79.3331C358.834 74.5059 362.084 70.035 361.978 69.6398C361.819 69.0471 360.118 68.2321 358.827 68.1546Z" fill="url(#paint0_linear)"/>
<defs>
<linearGradient id="paint0_linear" x1="15.1958" y1="249.991" x2="416.742" y2="55.0169" gradientUnits="userSpaceOnUse">
<stop stop-color="#4FAEED"/>
<stop offset="0.213542" stop-color="#4E72D9"/>
<stop offset="0.40625" stop-color="#5959D0"/>
<stop offset="0.567708" stop-color="#7E4DBF"/>
<stop offset="0.770833" stop-color="#C04EA5"/>
<stop offset="1" stop-color="#ED7A4F"/>
</linearGradient>
</defs>
</svg>
