<svg width="143" height="143" viewBox="0 0 143 143" fill="none" xmlns="http://www.w3.org/2000/svg">
<path d="M58.8251 45.1489L70.6492 64.5645L76.1219 42.5004L74.2757 65.158L91.6721 50.5245L76.8607 67.7697L99.536 66.1563L77.4169 71.402L96.7099 83.4251L75.7318 74.6676L84.2733 95.7346L72.4491 76.319L66.9764 98.3831L68.8227 75.7255L51.4262 90.359L66.2377 73.1138L43.5623 74.7272L65.6815 69.4815L46.3884 57.4585L67.3665 66.216L58.8251 45.1489Z" fill="url(#paint0_linear)"/>
<path d="M126.031 85.3743C125.921 84.9315 125.828 84.4885 125.753 84.0452C125.678 83.602 125.626 83.1473 125.596 82.6812C125.56 82.2143 125.554 81.7252 125.578 81.2141C125.601 80.7088 125.656 80.1698 125.743 79.5971C125.927 78.3824 126.226 77.2828 126.641 76.2983C127.056 75.3196 127.579 74.4995 128.212 73.8379C128.849 73.1829 129.59 72.7091 130.433 72.4166C131.282 72.125 132.23 72.0583 133.277 72.2168C134.324 72.3752 135.206 72.7189 135.925 73.2477C136.65 73.7775 137.217 74.4491 137.626 75.2625C138.04 76.0825 138.301 77.0213 138.407 78.0787C138.512 79.142 138.473 80.281 138.289 81.4957C138.203 82.0684 138.096 82.5995 137.968 83.0891C137.84 83.5845 137.69 84.0499 137.517 84.4853C137.351 84.9216 137.166 85.3404 136.963 85.7416C136.761 86.1429 136.541 86.5386 136.304 86.9288L133.406 86.4903C133.636 86.1877 133.865 85.8674 134.093 85.5292C134.328 85.1919 134.548 84.814 134.753 84.3954C134.964 83.9776 135.153 83.5121 135.319 82.9989C135.492 82.4865 135.628 81.9006 135.727 81.2412C135.88 80.2289 135.904 79.3715 135.797 78.669C135.689 77.9722 135.492 77.3981 135.206 76.9464C134.919 76.4948 134.562 76.1538 134.136 75.9236C133.715 75.6942 133.264 75.5432 132.784 75.4705C132.466 75.4224 132.145 75.4094 131.823 75.4315C131.506 75.4546 131.196 75.5261 130.894 75.646C130.597 75.7668 130.314 75.9399 130.043 76.1652C129.772 76.3905 129.524 76.6842 129.297 77.0464C129.071 77.4085 128.87 77.8396 128.693 78.3395C128.522 78.8461 128.385 79.4378 128.283 80.1146C128.183 80.774 128.134 81.3731 128.135 81.9117C128.142 82.4512 128.182 82.9513 128.254 83.4119C128.326 83.8725 128.422 84.2982 128.54 84.6889C128.664 85.0804 128.794 85.4551 128.929 85.8128L126.031 85.3743Z" fill="white"/>
<path d="M127.924 103.007C127.987 102.939 128.074 102.838 128.187 102.702C128.303 102.575 128.428 102.42 128.563 102.237C128.702 102.056 128.844 101.85 128.987 101.62C129.128 101.395 129.256 101.154 129.373 100.899C129.614 100.366 129.774 99.8377 129.851 99.3138C129.931 98.7976 129.953 98.2902 129.916 97.7915C129.884 97.2952 129.809 96.8111 129.689 96.339C129.572 95.8748 129.435 95.4335 129.278 95.0152L122.67 92.0146L124.016 89.0502L134.995 94.0355L133.649 96.9999L131.867 96.1908C131.971 96.6686 132.061 97.1496 132.137 97.6338C132.216 98.1257 132.259 98.6176 132.267 99.1095C132.272 99.6067 132.228 100.107 132.134 100.611C132.046 101.117 131.887 101.623 131.657 102.129C131.57 102.321 131.471 102.51 131.36 102.698C131.252 102.893 131.143 103.077 131.031 103.252C130.918 103.432 130.807 103.597 130.7 103.747C130.594 103.898 130.496 104.027 130.409 104.135L127.924 103.007Z" fill="white"/>
<path d="M109.987 112.019C110.386 111.056 110.855 110.155 111.395 109.315C111.927 108.476 112.53 107.667 113.203 106.888C114.064 105.892 114.937 105.096 115.823 104.501C116.709 103.914 117.586 103.531 118.452 103.351C119.318 103.172 120.166 103.197 120.996 103.427C121.826 103.657 122.612 104.094 123.356 104.736C124.046 105.333 124.566 106.025 124.913 106.813C125.262 107.609 125.431 108.451 125.421 109.339C125.411 110.236 125.213 111.154 124.825 112.095C124.442 113.04 123.862 113.961 123.085 114.86C122.37 115.688 121.603 116.347 120.784 116.838C119.966 117.337 119.126 117.643 118.263 117.756C117.396 117.873 116.525 117.789 115.65 117.504C114.771 117.224 113.913 116.722 113.077 115.999L112.466 115.471L120.235 106.482C119.879 106.313 119.503 106.216 119.107 106.19C118.707 106.17 118.287 106.244 117.847 106.413C117.408 106.582 116.944 106.854 116.457 107.23C115.966 107.61 115.446 108.118 114.895 108.756C114.505 109.207 114.149 109.673 113.827 110.152C113.509 110.636 113.232 111.104 112.996 111.557C112.764 112.013 112.573 112.44 112.423 112.837C112.27 113.238 112.168 113.579 112.118 113.86L109.987 112.019ZM116.389 114.582C116.634 114.755 116.926 114.887 117.264 114.979C117.603 115.079 117.975 115.091 118.381 115.016C118.786 114.941 119.221 114.76 119.685 114.473C120.154 114.19 120.643 113.754 121.151 113.165C121.629 112.612 121.974 112.075 122.185 111.553C122.396 111.032 122.518 110.546 122.552 110.096C122.581 109.65 122.544 109.25 122.439 108.897C122.335 108.544 122.202 108.259 122.041 108.042L116.389 114.582Z" fill="white"/>
<path d="M97.2032 120.262L97.8058 121.282C98.0474 120.874 98.33 120.473 98.6538 120.078C98.9725 119.685 99.3223 119.305 99.7031 118.938C100.084 118.57 100.496 118.221 100.94 117.891C101.376 117.559 101.833 117.252 102.311 116.969C102.87 116.639 103.443 116.372 104.029 116.168C104.611 115.967 105.173 115.866 105.716 115.865C106.258 115.864 106.766 115.982 107.239 116.219C107.707 116.459 108.105 116.856 108.432 117.41C108.846 118.11 108.998 118.805 108.889 119.494C108.783 120.189 108.425 120.917 107.814 121.678C107.204 122.44 106.347 123.255 105.244 124.124C104.135 124.997 102.786 125.963 101.198 127.024L101.327 127.243C101.429 127.414 101.574 127.556 101.762 127.669C101.954 127.787 102.208 127.837 102.524 127.82C102.839 127.811 103.228 127.724 103.694 127.557C104.155 127.394 104.708 127.122 105.352 126.741C105.861 126.44 106.348 126.115 106.814 125.765C107.278 125.423 107.715 125.07 108.125 124.705C108.53 124.344 108.903 123.981 109.245 123.616C109.586 123.251 109.887 122.903 110.147 122.573L111.62 125.066C111.321 125.365 110.978 125.687 110.59 126.032C110.202 126.376 109.79 126.719 109.352 127.059C108.917 127.404 108.468 127.737 108.006 128.058C107.546 128.384 107.094 128.678 106.651 128.94C105.78 129.454 104.933 129.856 104.111 130.144C103.293 130.438 102.53 130.589 101.822 130.6C101.11 130.613 100.468 130.476 99.8971 130.188C99.3211 129.903 98.8442 129.441 98.4663 128.801L94.4001 121.918L97.2032 120.262ZM100.002 124.999C101.056 124.322 101.938 123.723 102.649 123.201C103.355 122.682 103.928 122.225 104.367 121.829C104.806 121.434 105.135 121.094 105.354 120.808C105.567 120.526 105.709 120.282 105.779 120.078C105.848 119.874 105.865 119.701 105.829 119.559C105.788 119.42 105.737 119.301 105.678 119.2C105.606 119.079 105.504 118.98 105.37 118.903C105.239 118.831 105.067 118.799 104.856 118.809C104.639 118.822 104.38 118.883 104.078 118.993C103.776 119.104 103.419 119.281 103.006 119.525C102.547 119.796 102.12 120.096 101.723 120.425C101.327 120.754 100.968 121.096 100.646 121.449C100.328 121.807 100.046 122.17 99.8019 122.539C99.5555 122.915 99.3528 123.279 99.1939 123.632L100.002 124.999Z" fill="white"/>
<path d="M85.4398 134.584L83.2502 125.408L86.417 124.652L88.6066 133.828L93.583 132.641L94.192 135.193L81.0639 138.326L80.4549 135.774L85.4398 134.584Z" fill="white"/>
<path d="M75.0118 126.672L75.384 138.724L72.1299 138.824L71.7577 126.772L75.0118 126.672Z" fill="white"/>
<path d="M59.176 125.544L62.8943 126.283L66.5269 139.298L62.9635 138.59L60.428 128.835L54.3648 136.882L50.8014 136.174L59.176 125.544Z" fill="white"/>
<path d="M38.3722 117.378C39.394 117.58 40.3697 117.863 41.2992 118.228C42.2266 118.585 43.1383 119.017 44.0343 119.525C45.1798 120.173 46.1313 120.873 46.889 121.625C47.6387 122.379 48.1864 123.163 48.5322 123.977C48.8779 124.791 49.0195 125.628 48.9569 126.486C48.8943 127.345 48.6208 128.202 48.1366 129.057C47.687 129.852 47.1101 130.496 46.406 130.992C45.694 131.49 44.9014 131.821 44.0284 131.985C43.1474 132.152 42.2076 132.138 41.2091 131.942C40.2077 131.752 39.1902 131.364 38.1567 130.779C37.2047 130.24 36.4077 129.617 35.7655 128.911C35.1155 128.207 34.6505 127.443 34.3708 126.619C34.0859 125.792 33.9972 124.921 34.1046 124.007C34.2069 123.09 34.5304 122.151 35.0752 121.189L35.4729 120.486L45.8128 126.34C45.9085 125.957 45.9298 125.569 45.8767 125.176C45.8186 124.78 45.6635 124.383 45.4116 123.985C45.1596 123.587 44.8017 123.186 44.3379 122.782C43.869 122.376 43.2679 121.965 42.5348 121.55C42.0155 121.256 41.4891 120.998 40.9556 120.777C40.4193 120.56 39.9059 120.381 39.4155 120.237C38.9222 120.099 38.4665 119.996 38.0482 119.927C37.6249 119.856 37.2703 119.823 36.9844 119.829L38.3722 117.378ZM37.1148 124.159C36.9933 124.433 36.9209 124.745 36.8976 125.094C36.8663 125.447 36.9273 125.814 37.0805 126.196C37.2337 126.579 37.4965 126.97 37.8689 127.369C38.2384 127.773 38.7617 128.167 39.4388 128.55C40.0752 128.91 40.6697 129.143 41.2223 129.247C41.7749 129.352 42.2754 129.376 42.7236 129.321C43.1667 129.262 43.5512 129.147 43.8771 128.975C44.203 128.804 44.4562 128.617 44.6368 128.417L37.1148 124.159Z" fill="white"/>
<path d="M15.0703 98.4984C15.7203 98.0815 16.3447 97.7817 16.9435 97.5992C17.5374 97.4198 18.1052 97.3406 18.6468 97.3615C19.1853 97.3775 19.702 97.484 20.1967 97.681C20.6883 97.8731 21.155 98.1402 21.5968 98.4823C22.0387 98.8244 22.4608 99.2278 22.8632 99.6926C23.2606 100.161 23.6378 100.673 23.9947 101.229L28.1262 107.67L17.9771 114.18L13.8551 107.754C13.4982 107.197 13.1924 106.639 12.9378 106.08C12.6782 105.524 12.4851 104.973 12.3584 104.429C12.2285 103.88 12.1772 103.339 12.2045 102.808C12.2268 102.279 12.3454 101.765 12.5604 101.266C12.7672 100.765 13.076 100.282 13.4866 99.8166C13.8973 99.3516 14.4252 98.9122 15.0703 98.4984ZM16.8423 101.261C16.3548 101.574 15.9724 101.909 15.695 102.268C15.4145 102.622 15.2485 103.013 15.1971 103.442C15.1377 103.87 15.195 104.344 15.3692 104.864C15.5384 105.388 15.8299 105.973 16.2437 106.618L18.4279 110.023L24.1599 106.346L21.9757 102.941C21.5619 102.296 21.1546 101.786 20.7539 101.41C20.3483 101.038 19.9389 100.79 19.5256 100.666C19.1043 100.54 18.6744 100.531 18.236 100.638C17.7944 100.741 17.3298 100.948 16.8423 101.261Z" fill="white"/>
<path d="M6.76305 83.7875C6.75952 83.8799 6.75902 84.0141 6.76156 84.1901C6.75684 84.3621 6.76312 84.5614 6.78039 84.7879C6.79204 85.0161 6.81867 85.2643 6.86027 85.5324C6.90023 85.795 6.95949 86.0611 7.03807 86.3307C7.20176 86.8924 7.42502 87.3971 7.70784 87.8448C7.98342 88.2885 8.29773 88.6875 8.65078 89.0416C8.99822 89.3974 9.37117 89.7152 9.76963 89.9952C10.1608 90.2712 10.5523 90.5166 10.944 90.7315L17.9114 88.7009L18.8224 91.8266L7.24647 95.2003L6.33553 92.0746L8.2143 91.5271C7.82379 91.2326 7.44206 90.9264 7.06911 90.6086C6.68891 90.2867 6.33551 89.9418 6.0089 89.5739C5.68066 89.2003 5.388 88.792 5.13091 88.349C4.8682 87.9076 4.6591 87.4201 4.50359 86.8865C4.44466 86.6843 4.39615 86.476 4.35805 86.2617C4.3127 86.0433 4.27542 85.8318 4.24621 85.627C4.21536 85.4166 4.19142 85.2195 4.17437 85.0355C4.15733 84.8516 4.14683 84.6901 4.14288 84.5511L6.76305 83.7875Z" fill="white"/>
<path d="M14.5213 65.0197C14.8412 66.0109 15.0676 67.0014 15.2004 67.9911C15.339 68.9751 15.4044 69.9819 15.3964 71.0115C15.3863 72.3278 15.2368 73.4996 14.9481 74.5271C14.6535 75.5486 14.2344 76.4084 13.6908 77.1062C13.1471 77.8041 12.4849 78.3343 11.704 78.6968C10.923 79.0594 10.0412 79.2369 9.05835 79.2293C8.14573 79.2222 7.30181 79.0314 6.52659 78.6569C5.74556 78.2764 5.07101 77.7447 4.50293 77.0616C3.92905 76.3727 3.48496 75.5443 3.17065 74.5766C2.8505 73.6088 2.695 72.5311 2.70417 71.3435C2.71262 70.2495 2.86952 69.2503 3.17488 68.3458C3.47443 67.4355 3.9163 66.6578 4.50048 66.0129C5.0847 65.3622 5.80232 64.8617 6.65335 64.5114C7.50442 64.1552 8.48279 63.9814 9.58847 63.9899L10.3958 63.9962L10.3041 75.8778C10.6851 75.7754 11.0345 75.6055 11.3523 75.3681C11.6701 75.1249 11.9418 74.7964 12.1673 74.3828C12.3928 73.9691 12.5693 73.4615 12.6968 72.8599C12.8244 72.2524 12.8914 71.5275 12.8979 70.685C12.9025 70.0883 12.8719 69.503 12.8061 68.9292C12.7345 68.3553 12.6421 67.8192 12.5289 67.3211C12.4099 66.8229 12.2788 66.3743 12.1357 65.9754C11.9925 65.5706 11.8488 65.2448 11.7044 64.9979L14.5213 65.0197ZM7.98393 67.2158C7.68535 67.2427 7.37752 67.331 7.06043 67.4807C6.73755 67.6245 6.44616 67.8562 6.18627 68.176C5.92638 68.4958 5.71252 68.9154 5.5447 69.4348C5.37102 69.9541 5.28118 70.6028 5.27518 71.3809C5.26953 72.1122 5.35533 72.7447 5.53257 73.2784C5.70982 73.8122 5.93159 74.2615 6.1979 74.6263C6.46425 74.9852 6.75169 75.2653 7.06021 75.4666C7.36873 75.6679 7.65439 75.7988 7.9172 75.8594L7.98393 67.2158Z" fill="white"/>
<path d="M18.8406 50.6147L17.7209 50.2278C17.8009 50.6949 17.8455 51.1839 17.8547 51.6946C17.8659 52.1998 17.8455 52.7158 17.7935 53.2425C17.7415 53.7692 17.6533 54.302 17.529 54.8409C17.4122 55.3762 17.263 55.9065 17.0815 56.4318C16.8695 57.0456 16.606 57.6199 16.2912 58.1549C15.9783 58.6843 15.6155 59.1253 15.2028 59.4779C14.79 59.8305 14.3268 60.0696 13.8129 60.1954C13.3009 60.3156 12.7408 60.2707 12.1326 60.0605C11.364 59.795 10.7979 59.3642 10.4344 58.7682C10.0653 58.1702 9.86668 57.3836 9.83847 56.4083C9.81025 55.4329 9.93502 54.2567 10.2128 52.8795C10.4924 51.4968 10.8939 49.8869 11.4172 48.0499L11.1766 47.9668C10.9886 47.9018 10.7862 47.8876 10.5693 47.9241C10.3469 47.9587 10.1207 48.0848 9.89081 48.3025C9.65725 48.5127 9.41694 48.832 9.1699 49.2604C8.92477 49.6832 8.67994 50.2485 8.4354 50.9563C8.24244 51.5148 8.08181 52.0783 7.9535 52.6467C7.82157 53.2077 7.71749 53.7598 7.64126 54.3029C7.56694 54.8405 7.51781 55.3589 7.49386 55.8582C7.46992 56.3575 7.46583 56.8172 7.4816 57.2373L4.74445 56.2917C4.77865 55.8702 4.83185 55.4027 4.90406 54.8891C4.97626 54.3756 5.06898 53.8475 5.18221 53.3048C5.28991 52.7601 5.41611 52.2157 5.5608 51.6715C5.69997 51.1254 5.85361 50.609 6.02173 50.1224C6.35224 49.1658 6.73714 48.3115 7.17642 47.5596C7.61018 46.8058 8.09324 46.1959 8.62562 45.7299C9.1599 45.2584 9.73776 44.9474 10.3592 44.7969C10.9826 44.6409 11.6454 44.6842 12.3476 44.9268L19.9038 47.5375L18.8406 50.6147ZM13.64 48.8179C13.2754 50.0165 12.9913 51.0449 12.7877 51.903C12.586 52.7555 12.4459 53.4746 12.3673 54.0603C12.2888 54.6459 12.2586 55.1183 12.2769 55.4774C12.2971 55.831 12.3468 56.1082 12.4261 56.3088C12.5053 56.5095 12.6045 56.6521 12.7239 56.7367C12.8451 56.8157 12.9611 56.8743 13.0716 56.9126C13.2044 56.9584 13.3467 56.9674 13.4987 56.9394C13.6452 56.9096 13.796 56.8224 13.9512 56.6779C14.1082 56.5279 14.266 56.3132 14.4244 56.0337C14.5829 55.7542 14.7405 55.3877 14.8971 54.9343C15.071 54.4311 15.2023 53.9256 15.2911 53.4178C15.3799 52.91 15.4324 52.4175 15.4487 51.9403C15.4595 51.4613 15.4386 51.0022 15.386 50.5631C15.3299 50.1166 15.2483 49.7078 15.1413 49.3366L13.64 48.8179Z" fill="white"/>
<path d="M14.2506 32.4321L15.2372 33.3167C15.2935 32.9822 15.3611 32.6263 15.44 32.2492C15.5227 31.8676 15.6361 31.4782 15.7801 31.0809C15.9281 30.6793 16.1154 30.2775 16.342 29.8757C16.5682 29.4657 16.8571 29.0646 17.2086 28.6726C17.5522 28.2892 17.8943 27.9909 18.2348 27.7776C18.571 27.5604 18.8981 27.4059 19.2163 27.3139C19.5339 27.2137 19.8398 27.1618 20.1337 27.1582C20.4233 27.1507 20.6953 27.1628 20.9498 27.1945C21.0267 26.7056 21.1171 26.2366 21.221 25.7876C21.325 25.3387 21.4548 24.909 21.6106 24.4986C21.7663 24.0883 21.9562 23.6968 22.1803 23.3241C22.4001 22.9475 22.6642 22.5872 22.9727 22.2431C23.4648 21.6942 23.9804 21.2725 24.5195 20.9779C25.0624 20.679 25.6015 20.4984 26.1367 20.436C26.6719 20.3737 27.1906 20.4262 27.6927 20.5935C28.1944 20.7525 28.65 21.0156 29.0594 21.3827L35.3191 26.9946L33.1458 29.4187L27.2325 24.1173C26.9929 23.9025 26.7528 23.7541 26.5121 23.6719C26.2715 23.5897 26.0401 23.563 25.818 23.5917C25.5997 23.616 25.3883 23.6897 25.1837 23.8127C24.983 23.9314 24.7987 24.0844 24.6308 24.2717C23.8498 25.1429 23.3514 26.4876 23.1357 28.3057C23.2215 28.359 23.3164 28.4284 23.4205 28.5138C23.5285 28.5949 23.6326 28.6804 23.7328 28.7702L29.2737 33.7377L27.1004 36.1619L21.1348 30.8136C20.8952 30.5988 20.6595 30.4542 20.4276 30.3799C20.1913 30.3016 19.9623 30.281 19.7406 30.318C19.5228 30.3506 19.316 30.4323 19.1201 30.5631C18.9238 30.6857 18.7417 30.8406 18.5737 31.0279C18.3707 31.2544 18.1886 31.5233 18.0274 31.8345C17.8701 32.1414 17.7351 32.4761 17.6223 32.8385C17.5134 33.1966 17.4283 33.5721 17.3668 33.9648C17.3093 34.3533 17.2746 34.7425 17.2628 35.1326L23.2284 40.4809L21.0551 42.905L12.0773 34.8563L14.2506 32.4321Z" fill="white"/>
<path d="M51.41 8.63639L54.2882 17.6202L51.1878 18.6135L48.3096 9.6297L43.4374 11.1906L42.6369 8.69186L55.49 4.57403L56.2906 7.07279L51.41 8.63639Z" fill="white"/>
<path d="M75.6811 14.4528C74.6962 14.7918 73.7103 15.0373 72.7233 15.1891C71.7422 15.3468 70.7369 15.4315 69.7073 15.4435C68.3911 15.4587 67.2165 15.3319 66.1837 15.063C65.1566 14.7882 64.289 14.3858 63.5808 13.8557C62.8725 13.3257 62.3296 12.6738 61.9521 11.9C61.5745 11.1262 61.3801 10.2479 61.3687 9.26515C61.3581 8.35256 61.5326 7.50511 61.8921 6.72281C62.2574 5.93458 62.7761 5.24989 63.448 4.66874C64.1258 4.08167 64.9454 3.62168 65.9069 3.28875C66.8683 2.94998 67.9428 2.77371 69.1304 2.75996C70.2243 2.74729 71.2264 2.88488 72.1366 3.17273C73.0525 3.45465 73.8386 3.88143 74.4946 4.45305C75.1565 5.02461 75.6708 5.73244 76.0375 6.57654C76.41 7.42058 76.6026 8.39542 76.6154 9.50105L76.6248 10.3083L64.7436 10.4459C64.8533 10.825 65.0299 11.171 65.2734 11.4842C65.5228 11.7972 65.8564 12.0625 66.2743 12.28C66.6922 12.4974 67.2032 12.6641 67.8071 12.78C68.417 12.8958 69.1431 12.9488 69.9854 12.9391C70.5821 12.9322 71.1667 12.8903 71.7392 12.8134C72.3116 12.7308 72.8458 12.628 73.3417 12.5053C73.8375 12.3767 74.2834 12.2369 74.6795 12.0861C75.0815 11.9352 75.4045 11.7852 75.6485 11.6361L75.6811 14.4528ZM73.3592 7.95907C73.3265 7.66107 73.2323 7.355 73.0765 7.04086C72.9265 6.72081 72.6892 6.43395 72.3645 6.18028C72.0397 5.92661 71.6161 5.72089 71.0936 5.56312C70.571 5.3995 69.9206 5.3222 69.1426 5.33121C68.4114 5.33967 67.7806 5.43767 67.2504 5.62518C66.7201 5.81269 66.2752 6.0431 65.9156 6.31639C65.5619 6.58962 65.2874 6.88241 65.0921 7.19476C64.8968 7.50711 64.7714 7.79525 64.7159 8.05917L73.3592 7.95907Z" fill="white"/>
<path d="M90.4229 18.5682L90.7929 17.4428C90.327 17.5298 89.8388 17.5818 89.3283 17.5987C88.8233 17.6175 88.3071 17.6048 87.7797 17.5608C87.2522 17.5167 86.7181 17.4366 86.1774 17.3204C85.6405 17.2117 85.108 17.0705 84.58 16.897C83.9631 16.6942 83.3848 16.4394 82.8452 16.1327C82.3111 15.8278 81.8647 15.4717 81.5059 15.0643C81.1472 14.657 80.9011 14.1973 80.7676 13.6854C80.6396 13.1753 80.6762 12.6146 80.8771 12.0033C81.1311 11.2307 81.5533 10.6582 82.1437 10.2858C82.736 9.90775 83.5196 9.69728 84.4944 9.65437C85.4692 9.61146 86.6472 9.71849 88.0284 9.97545C89.4151 10.2342 91.0309 10.6114 92.8756 11.1069L92.955 10.8652C93.0172 10.6762 93.0283 10.4736 92.9886 10.2573C92.9507 10.0354 92.8212 9.81119 92.6001 9.58455C92.3863 9.35419 92.0635 9.11873 91.6314 8.87817C91.2049 8.63944 90.6359 8.40315 89.9245 8.16931C89.3632 7.98479 88.7974 7.83266 88.2271 7.71293C87.6641 7.58947 87.1106 7.49373 86.5664 7.42569C86.0277 7.35948 85.5086 7.31816 85.0091 7.30174C84.5095 7.28532 84.0497 7.28816 83.6299 7.31026L84.5342 4.55917C84.9561 4.58702 85.4244 4.63317 85.939 4.69763C86.4535 4.76209 86.983 4.84684 87.5274 4.95187C88.0735 5.05135 88.6198 5.16933 89.1661 5.30581C89.7143 5.43673 90.2329 5.58258 90.722 5.74335C91.6835 6.0594 92.5435 6.43138 93.3019 6.85929C94.0622 7.28163 94.6793 7.75545 95.1532 8.28074C95.6328 8.80786 95.9524 9.38097 96.1123 10.0001C96.2776 10.621 96.2443 11.2844 96.0123 11.9902L93.5158 19.5849L90.4229 18.5682ZM92.1412 13.3411C90.9372 12.9946 89.9047 12.7261 89.0436 12.5354C88.1881 12.3465 87.467 12.2173 86.8802 12.1476C86.2934 12.0778 85.8207 12.0548 85.4618 12.0785C85.1086 12.1041 84.8322 12.1579 84.6328 12.2402C84.4333 12.3224 84.2922 12.4238 84.2095 12.5444C84.1323 12.6668 84.0754 12.7836 84.0389 12.8948C83.995 13.0282 83.9882 13.1706 84.0184 13.3222C84.0505 13.4682 84.1399 13.6177 84.2867 13.7707C84.4391 13.9254 84.6562 14.0799 84.938 14.2342C85.2199 14.3884 85.5887 14.5404 86.0444 14.6902C86.5501 14.8565 87.0576 14.9802 87.5667 15.0613C88.0758 15.1424 88.569 15.1876 89.0463 15.1967C89.5255 15.2002 89.9842 15.1724 90.4224 15.1132C90.868 15.0503 91.2756 14.9626 91.6451 14.8501L92.1412 13.3411Z" fill="white"/>
<path d="M108.621 13.762L107.751 14.7614C108.086 14.8128 108.443 14.8752 108.821 14.9486C109.204 15.0258 109.595 15.1335 109.994 15.2717C110.398 15.4138 110.803 15.5953 111.208 15.816C111.621 16.0363 112.026 16.3192 112.423 16.665C112.812 17.003 113.115 17.3407 113.333 17.6781C113.555 18.0111 113.714 18.3359 113.811 18.6527C113.916 18.9689 113.972 19.2739 113.98 19.5678C113.992 19.8572 113.984 20.1294 113.956 20.3843C114.446 20.4541 114.916 20.5377 115.366 20.6351C115.817 20.7324 116.248 20.856 116.661 21.0058C117.073 21.1556 117.468 21.3398 117.843 21.5584C118.223 21.7727 118.587 22.0315 118.936 22.335C119.492 22.8191 119.921 23.3284 120.223 23.8632C120.53 24.4018 120.719 24.9382 120.789 25.4724C120.859 26.0066 120.814 26.526 120.654 27.0305C120.502 27.5344 120.246 27.9938 119.885 28.4086L114.364 34.7492L111.909 32.6114L117.124 26.6216C117.335 26.3789 117.48 26.1366 117.559 25.8948C117.637 25.653 117.661 25.4213 117.629 25.1996C117.601 24.9817 117.525 24.7714 117.399 24.5686C117.277 24.3697 117.121 24.1876 116.932 24.0224C116.049 23.2541 114.697 22.7754 112.876 22.5862C112.824 22.6727 112.756 22.7687 112.672 22.874C112.593 22.9832 112.509 23.0885 112.421 23.19L107.534 28.8025L105.079 26.6647L110.34 20.622C110.551 20.3793 110.692 20.1415 110.763 19.9085C110.838 19.6711 110.855 19.4418 110.815 19.2207C110.779 19.0034 110.694 18.7978 110.561 18.6038C110.435 18.4093 110.278 18.2295 110.088 18.0643C109.859 17.8645 109.587 17.6863 109.274 17.5297C108.964 17.3769 108.628 17.2468 108.264 17.1393C107.904 17.0356 107.528 16.9559 107.134 16.9002C106.745 16.8483 106.355 16.8193 105.965 16.8131L100.704 22.8559L98.2483 20.7181L106.166 11.6242L108.621 13.762Z" fill="white"/>
<path d="M122.057 49.2885L121.062 46.6063L135.283 47.6768L136.278 50.359L122.057 49.2885Z" fill="white"/>
<defs>
<linearGradient id="paint0_linear" x1="57.9344" y1="113.042" x2="119.456" y2="71.1994" gradientUnits="userSpaceOnUse">
<stop stop-color="#4FAEED"/>
<stop offset="0.213542" stop-color="#4E72D9"/>
<stop offset="0.40625" stop-color="#5959D0"/>
<stop offset="0.567708" stop-color="#7E4DBF"/>
<stop offset="0.770833" stop-color="#C04EA5"/>
<stop offset="1" stop-color="#ED7A4F"/>
</linearGradient>
</defs>
</svg>
