<svg width="40" height="65" viewBox="0 0 40 65" fill="none" xmlns="http://www.w3.org/2000/svg">
<path d="M28.4358 43.9583C24.7161 43.9583 22.0066 43.0996 20.1467 41.3325L19.867 41.0659L19.5821 41.3325C17.7326 43.0996 15.0283 43.9583 11.293 43.9583H11.0495C3.75517 43.9583 0.0406494 40.4422 0.0406494 33.514L0.0406494 23.0743H4.96227L4.96227 33.8168C4.96227 37.5363 6.3455 39.344 9.19486 39.344H13.1995C16.0489 39.344 17.4321 37.5363 17.4321 33.8259L17.4321 -201.489H22.3485L22.3485 33.8168C22.3485 35.1726 22.3485 39.335 26.5552 39.335H30.5909C34.7924 39.335 34.7924 35.1817 34.7924 33.8168L34.7924 -206.267H39.74L39.74 33.514C39.74 40.4422 36.0306 43.9583 28.7104 43.9583H28.4358Z" fill="white"/>
<path d="M19.8367 41.1059C19.8481 41.0892 19.8642 41.0752 19.8833 41.0652C18.2411 39.3343 17.4432 36.8487 17.4329 33.5993V33.8614C17.4329 37.5718 16.003 39.3795 13.1588 39.3795H9.14903C6.30485 39.3795 4.91644 37.5718 4.91644 33.8614L4.91644 -211H0L0 33.5586C0 40.4868 3.70934 43.9983 11.0348 43.9983H11.2731C14.9928 43.9983 17.7023 43.1396 19.5621 41.3771L19.8471 41.1059H19.8367Z" fill="#DDDDDD"/>
<path d="M20.7893 63.5326C20.5238 63.8903 19.9883 63.8903 19.7227 63.5326L15.8664 58.3374C15.5411 57.8992 15.8539 57.2774 16.3996 57.2774L24.1124 57.2774C24.6582 57.2774 24.971 57.8992 24.6457 58.3375L20.7893 63.5326Z" fill="#DDDDDD"/>
</svg>
