<svg width="368" height="207" viewBox="0 0 368 207" fill="none" xmlns="http://www.w3.org/2000/svg">
<path fill-rule="evenodd" clip-rule="evenodd" d="M125.088 33.8767C130.55 15.9127 131.019 8.13098 127.185 3.52269C125.997 2.40175 124.56 1.57896 122.992 1.12197C120.705 0.168932 119.896 0.317547 115.687 1.09056L115.516 1.12197C109.144 2.28094 102.082 5.73026 91.6553 12.7945C69.5873 27.3092 36.8715 57.2769 17.1758 81.2014C-1.03036 102.918 -3.70612 112.714 5.0935 120.993C10.9967 126.319 20.0997 129.354 46.0297 134.597C71.9596 139.84 83.7108 143.427 91.8208 149.195C98.386 153.637 101.365 159.156 100.455 164.675C98.6895 174.692 88.5381 185.73 73.4215 194.008C66.5023 198.069 58.9189 200.872 51.0226 202.287C42.7471 203.804 39.9886 203.694 37.2301 201.845C36.2094 200.962 35.8784 200.41 35.6025 197.651C35.468 192.231 36.8434 186.88 39.5748 182.198C43.7476 174.675 48.8444 167.704 54.7465 161.447C56.8874 159.202 58.7407 156.699 60.2635 153.996C60.2084 153.582 59.2705 153.113 58.3602 152.865C58.3238 152.85 58.2882 152.835 58.2533 152.821L58.1173 152.764C57.7123 152.595 57.4001 152.464 57.0835 152.452C56.018 152.413 54.9026 153.717 50.0336 159.412L50.0335 159.412L49.2847 160.288C43.5595 166.625 38.5373 173.564 34.306 180.983C30.6096 188.738 29.1752 196.023 31.2165 200.134C33.2578 204.246 39.0782 206.757 46.3055 206.757C52.9561 206.147 59.5063 204.719 65.8081 202.507C75.7385 198.652 84.9724 193.199 93.1449 186.364C98.3695 181.593 102.395 175.655 104.896 169.035C107.02 162.026 104.344 155.679 97.2274 149.526C88.1244 141.799 75.1043 137.163 44.2642 130.899C17.9205 125.739 11.0795 123.366 7.65893 118.647C6.62165 117.474 5.85003 116.09 5.39694 114.591C5.20518 111.523 5.82357 108.459 7.18999 105.705C13.0656 92.46 39.6024 62.7959 66.4426 39.2577C89.3933 19.0032 108.261 6.77887 118.992 4.79206C123.13 3.96422 124.261 4.46091 124.675 6.72367C126.164 14.7813 119.02 39.5888 106.634 68.5631C98.4136 87.6034 97.8343 92.598 102.662 94.5021C104.758 95.3023 105.144 95.0264 105.668 94.5021C106.193 93.9778 106.137 93.757 105.668 93.4259C105.142 92.9866 104.798 92.3668 104.703 91.6874C104.206 89.6178 106.413 81.8361 110.22 73.5578C116.178 59.6501 120.868 46.8462 125.088 33.8767ZM133.609 151.794C140.917 145.922 147.979 139.752 154.776 133.3C154.119 137.628 154.064 141.266 154.738 143.424C155.284 145.272 156.358 146.921 157.828 148.166C159.299 149.411 161.101 150.199 163.014 150.433C164.071 150.439 165.12 150.242 166.103 149.853C170.13 148.473 175.703 141.685 180.502 132.882C181.882 130.068 182.737 128.44 182.737 128.854V132.275C183.178 137.077 186.157 139.312 190.819 138.043C192.85 137.427 195.902 135.49 199.324 132.728C198.406 135.471 198.163 137.814 198.817 139.373C199.998 141.018 201.639 142.276 203.534 142.988C204.669 143.142 205.82 143.142 206.955 142.988C210.458 142.354 213.024 139.98 222.927 128.943C224.235 127.475 225.466 126.082 226.571 124.831L226.572 124.83C229.518 121.495 231.568 119.174 231.809 119.174C232.081 119.174 231.999 119.992 231.885 121.139L231.885 121.141L231.885 121.145C231.86 121.394 231.833 121.659 231.809 121.934C230.623 128.777 231.478 132.254 234.567 134.02C235.82 134.746 237.236 135.142 238.684 135.171C240.131 135.2 241.562 134.861 242.843 134.186C253.589 127.21 263.889 119.57 273.683 111.31C274.008 111.006 274.33 110.7 274.649 110.391C274.184 113.017 274.123 115.418 274.62 117.219C274.743 118.053 275.057 118.846 275.535 119.54C276.013 120.234 276.643 120.808 277.378 121.22C278.637 121.999 280.031 122.533 281.488 122.793C284.867 123.102 288.251 122.256 291.088 120.393C293.9 118.581 309.742 107.194 316.742 101.832C315.614 106.915 315.512 112.174 316.443 117.3C316.949 118.34 317.659 119.267 318.531 120.026C319.403 120.785 320.419 121.359 321.519 121.715C325.436 122.681 330.76 119.121 335.312 112.526C336.838 110.314 338.193 107.99 339.367 105.572C340.167 104.137 340.829 103.172 341.656 103.006C347.347 100.897 352.879 98.3792 358.207 95.4727C363.062 92.7132 368 88.6568 368 87.1943C367.881 86.6395 367.603 86.1313 367.2 85.7318C366.262 85.2627 365.628 85.3731 361.517 88.4912C356.053 92.1288 350.274 95.2688 344.249 97.8734L342.263 98.6461L342.401 97.1283C342.24 95.1042 341.936 93.094 341.491 91.1128L341.477 91.0379C340.744 87.0722 340.57 86.1344 338.981 84.3245C334.457 78.3089 327.753 79.1367 321.602 86.2561C319.29 88.9464 317.86 92.278 317.5 95.8008C316.503 96.4891 315.541 97.2275 314.618 98.0134C307.694 103.339 290.233 115.977 287.474 117.55C284.026 119.703 281.599 120.531 280.385 119.703C279.171 118.875 279.033 118.047 279.447 114.543C279.988 109.973 281.333 105.536 283.419 101.435C285.129 97.903 287.888 94.3985 289.35 94.1502C291.391 93.7638 290.233 92.053 287.75 91.2251C287.279 91.0232 286.773 90.9191 286.26 90.9191C285.748 90.9191 285.242 91.0232 284.771 91.2251C282.079 92.8098 279.273 97.077 277.24 101.879C275.744 102.886 274.382 104.08 273.187 105.432C268.221 110.813 242.54 130.102 239.091 131.15L236.691 132.006L236.36 130.157C235.698 126.763 237.905 114.621 241.822 104.521C245.739 94.4217 254.539 74.4156 260.553 63.7089C266.566 53.0022 281.683 27.3668 285.379 21.9859L289.765 15.6391L288.303 14.6181C286.014 12.6865 284.883 13.6799 280.828 19.1988C275.393 26.7045 256.36 59.5697 250.843 70.8559C245.381 81.5626 238.678 97.3191 236.278 103.969C235.628 106.461 234.452 108.786 232.83 110.785C232.119 111.772 231.274 112.654 230.319 113.407C230.142 113.432 230.011 112.734 229.841 111.828L229.795 111.586C229.699 110.996 229.463 110.439 229.108 109.959C228.753 109.479 228.289 109.09 227.754 108.826C226.856 108.138 225.807 107.674 224.694 107.473C223.581 107.271 222.436 107.338 221.354 107.667C219.241 108.043 217.274 108.998 215.672 110.427C214.303 111.508 212.958 112.718 211.66 114.018C211.003 114.329 210.323 115.028 209.274 116.353C203.473 123.187 196.859 129.284 189.578 134.511C188.199 135.173 188.199 135.173 187.923 133.545C187.786 128.336 188.333 123.131 189.55 118.064C190.736 111.8 190.709 110.503 188.888 109.786C186.047 108.378 185.523 108.903 181.302 118.45C174.599 134.207 169.965 141.464 165.303 145.107C162.71 147.287 161.469 147.508 160.559 145.962C158.71 142.899 159.014 136.442 161.469 127.86C163.648 119.996 164.972 116.767 166.213 116.519C168.696 116.077 166.903 112.738 164.145 112.214C161.938 111.773 161.331 112.104 159.814 115.36C158.484 118.628 157.357 122.034 156.472 125.33C156.192 125.61 155.892 125.931 155.567 126.297C155.025 126.747 154.15 127.602 153.085 128.643L153.085 128.643L153.084 128.644C151.603 130.092 149.755 131.898 147.926 133.471C144.781 136.175 140.616 140.149 138.437 142.274C134.911 145.891 130.75 148.828 126.161 150.938L123.927 151.573L123.431 148.814C123.017 145.282 123.403 141.584 125.61 133.913C128.07 125.435 131.112 117.137 134.713 109.077L136.782 104.221L143.237 102.151C145.765 101.353 148.22 100.337 150.574 99.1158L151.705 98.2604L150.188 97.0462L150.093 96.9931C148.742 96.238 148.461 96.0808 145.333 97.2946C142.133 98.5363 139.209 99.2538 139.209 98.8399C139.744 96.9063 140.398 95.0078 141.168 93.1554C144.312 84.877 145.609 79.1373 145.361 76.5986C145.057 74.9706 145.002 74.7498 142.961 74.0599L142.961 74.0599C141.752 73.6514 141.259 73.4848 140.966 73.6575C140.765 73.7765 140.658 74.0564 140.478 74.529C140.109 75.2024 139.955 75.9729 140.037 76.7366C140.506 79.2201 132.754 100.937 131.237 101.848L125.72 103.283C118.41 105.269 117.665 105.849 120.065 107.311C121.251 107.946 121.913 108.056 125.582 107.173L129.913 106.373L126.079 115.617C120.341 129.691 117.5 140.894 118.024 147.213C118.107 148.747 118.637 150.223 119.549 151.458C120.461 152.694 121.714 153.636 123.155 154.167C124.962 154.603 126.846 154.616 128.66 154.204C130.473 153.792 132.167 152.968 133.609 151.794ZM323.319 96.4584C323.624 96.1264 323.731 95.8986 323.686 95.7072C323.674 95.6589 323.653 95.6129 323.623 95.5682C323.934 94.7088 324.291 93.8664 324.691 93.0444C324.938 92.2573 325.077 91.4404 325.105 90.616C324.967 90.009 325.822 88.7672 327.422 87.0012C332.884 81.9238 334.898 82.3929 336.801 89.3191C337.58 92.7792 337.514 96.376 336.608 99.805C336.167 100.963 335.561 101.074 332.258 101.68L332.25 101.681C327.919 102.482 324.388 101.847 323.229 100.136C322.65 99.5015 322.761 98.7288 323.229 96.742C323.259 96.6473 323.288 96.5527 323.319 96.4584ZM227.423 114.4L229.05 115.173L220.168 124.914C215.423 130.295 210.431 135.703 209.134 136.779C208.083 137.921 206.792 138.816 205.355 139.401L203.783 140.118L203.617 138.021C203.424 131.233 216.058 114.152 223.616 111.061C224.968 110.371 224.968 110.371 225.271 112.027C225.308 112.608 225.54 113.16 225.931 113.591C226.322 114.022 226.848 114.307 227.423 114.4ZM286.978 83.8022C284.771 82.2845 284.605 80.1597 286.343 76.8759C287.143 75.441 289.24 75.2479 291.033 76.8759C292.026 77.5658 292.577 78.3108 292.44 78.7523C292.343 79.2443 292.343 79.7505 292.44 80.2425C292.28 81.1314 291.918 81.9718 291.382 82.699C290.847 83.4261 290.151 84.0206 289.35 84.4368C288.512 84.4851 287.68 84.2626 286.978 83.8022ZM331.119 105.324C331.95 105.25 332.787 105.306 333.601 105.49C334.126 106.041 329.657 112.416 327.478 114.541C325.298 116.665 322.071 118.735 321.574 118.404C320.609 117.742 320.388 112.002 321.161 105.683L321.547 103.254L325.216 104.496C327.151 104.967 329.128 105.245 331.119 105.324Z" fill="url(#paint0_linear)"/>
<defs>
<linearGradient id="paint0_linear" x1="-19.2063" y1="219.961" x2="442.642" y2="111.344" gradientUnits="userSpaceOnUse">
<stop stop-color="#4FAEED"/>
<stop offset="0.213542" stop-color="#4E72D9"/>
<stop offset="0.40625" stop-color="#5959D0"/>
<stop offset="0.567708" stop-color="#7E4DBF"/>
<stop offset="0.770833" stop-color="#C04EA5"/>
<stop offset="1" stop-color="#ED7A4F"/>
</linearGradient>
</defs>
</svg>
